<svg height="320" viewBox="0 0 127 84.666667" width="480" xmlns="http://www.w3.org/2000/svg" xmlns:xlink="http://www.w3.org/1999/xlink"><radialGradient id="a" cx="221.445" cy="226.331" gradientTransform="matrix(.767 0 0 .76456 85.603 236.352)" gradientUnits="userSpaceOnUse" r="300"><stop offset="0" stop-color="#fff" stop-opacity=".314"/><stop offset=".19" stop-color="#fff" stop-opacity=".251"/><stop offset=".6" stop-color="#6b6b6b" stop-opacity=".125"/><stop offset="1" stop-opacity=".125"/></radialGradient><path d="m0 0h127v84.667h-127z" fill="#fff" stroke-width=".394"/><path d="m63.4 78.7s18.76-7.06 18.76-25.005v-16.251h-37.524v16.252c0 17.944 18.764 25.004 18.764 25.004z" fill="#e20909" fill-rule="evenodd"/><path d="m52.272 40.528c.088.424.22.587.257.86-.243.28-.532.62-.46 1.063.12.362-.293.578-.496.75-.137-.017-.37-.068-.86.427.338.208.403.396.62.554.05.127.006.302.04.44.117.5.7.803 1.112.632.373-.154.456.2.743.31-.064.18-.507.504-.37.886.062.415-.41.5-.69.58.296.238.65.423 1.03.415.33.222.89.276 1.08-.204.295-.067.56.477.496.785-.127.348-.39.126-.54.018-.192.407.232.775.56.904-.096.25-.336.924-.35 1.297.32-.2.432-.44.66-.272.315.3.557.806 1.03.824.188.224-.11.913-.005 1.25a2.12 2.12 0 0 1 .986-.422c-.256.4-.25 1.04-.113 1.475-.418.224-.816.492-1.215.753-.22.095-.516.427-.692.36.002-.322 0-.654-.13-.94.326-.395.124-.955-.162-1.317-.264-.403-.218.324-.438.383-.35-.124-.886-.236-1.093.23a1.45 1.45 0 0 0 -.887-.134c-.384-.214-.898-.256-1.272.013-.043.246.516.357.526.682-.37.31-.04.796-.118 1.167-.216.38-.58.607-.805.985-.285.577.598.062.645.528.378.79 1.053.866 1.684.437.253.623.634.75.982.865.4.132.515.735.944.84.423.01.035.604.336.642.447.02.52-.52.836-.695.65-.36.064-.914.673-1.022.418-.074.752.21.435.563.41-.116.7-.36.72-.58-.008.324.01.5.117.7.092.182.138.26.503.55.014-.245.017-.67.23-.996.165-.255.458-.25.6-.67.025.38.51 1.1.795.966-.16-.403-.245-1.037.288-1.187.294.302.616.57.947.822.662.474 1.46 1.058 2.078 1.597-.237.064-.653-.01-.834.002.304.163.46.435.555.62-.283.426-3.32.73-4.177 1.214-.497.283-.902.772-1.466.903-.326.134-.967-.222-.626-.637-.37-.073-.535.207-.684.363-.255.29-.393.88-.12 1.227-.23.013-.606.203-.798.443-.612.504-.934 1.53-1.126 2.31.734-.472 1.295-1.037 2.216-1.197.258-.01.58-.167.832-.287-.083.58.02 1.342.154 1.903.192.49.074 1.058-.373 1.338-.367.227-.87.762-1.292.482-.232-.372-.567-.878-1-.697-.243-.193-.875-.416-1.33-.228.098.275.318.558.417.863-.006.087-.107.178-.17.27.136.42-.253.373-.467.555-.153.477-.756.882-.95 1.332.277.1.495-.028.7.026.033.312.39.29.573.65.235.29.643-.036.82.12.054.41.346.733.45 1.135.086.4.346.137.415-.11.315-.084.76.056.995-.325.266-.313.135-.972.634-1.054.183.265.363.27.602.455.217.14.27.447.473.663.415-.222.352-.778.65-1.09.235-.328-.135-.765.213-1.015.418.297 1.16.41 1.66.334-.16-.076-1.07-.66-.382-.562.23.06.827-.18.623-.405-.185-.044-.88-.17-.445-.39.188-.335.4-.07.882-.66-.16-.048-.313-.11-.408-.254.134-.108.178-.49.174-.63-.027-.812-.443-2.133-.443-2.133-.048-.263 3.527-1.635 3.83-1.797a.128.128 0 0 0 .047-.042c-.07.208-.297.83-.368 1.183 0 .922-.02 2.218-.968 2.5-.198.06-.46.18-.626.07l.1.638c.028.184.413.278.544.26.3-.086.33.077.24.314-.213.565-.267 1.31.02 1.873.116.23.176.573.605.676-.008-.494.06-1.02.328-1.43.256-.387.594-.81.74-1.272.12.16.314.475.48.608.377.29.49.804.156 1.185-.33.48-.614 1.01-1.028 1.413-.274.315-.685.29-1.048.226-.402-.115-.52.453-.894.384-.38.07-.78.348-.87.76.233.117.526.136.752.402-.005.284.35.295.242.568-.264.257-.17.663-.052.967-.085.357-.15.803.112 1.098.073.158.175-.065.215-.128.14-.453.514-.245.82-.21.403.015.743-.248.957-.59.405-.016.498.585.75.845.234-.1.294-.57.574-.702.597-.08 1.035-.806.823-1.42-.258-.202-.135-.47.14-.568.287.212.63-.07.922.002.11.118.173.163.37.27.363-.754-.28-1.413-.047-1.7.16-.196.66-.192.938-.452-.822.034.273-.3.284-.69-.166.026-.513.004-.64-.1.336-.17.514-.548.805-.783.145-.117.28-.346.36-.65-.47.23-.464.108-.59.098.663-.318.953-1.234.957-1.53-.39.035-1.02.15-1.35-.16-.485-.376-.826-1.015-1.394-1.267.096-1.138.272-2.197.033-3.388.93 1.625 1.54 1.967 3.385 2.746.463.567.5 2.478.362 3.263 1.095-.24 1.414-1.75 1.052-3.222.814.376 1.336.312 2.116-.01.147-.063.663-.577.79-.755-.574.026-1.616-.175-2.006-.407.89-.41 1.205-1.237 1.464-2.248-.39.557-.583.88-1.355 1.055.283-.563.015-.054.67-1.327.057-.445.09-.726.102-.942h-1.455c-.06.523-.237 1.008-.443 1.434-.436.9-1.347 1.368-1.883 1.048-.614-.364-1.108-.775-1.355-1.42-.448-.815-.873-1.8-1.286-2.636-.55-1.11-1.01-2.544-1.58-3.642.4.08.444-.05.655-.05-.45-.34-1.202-1.165-.825-1.762.346-.535.45-1.195.438-1.834.077-.185-.172-.822.11-.59.424.275 1.21.58 1.51.197-.216-.11-.41-.23-.485-.44a24.3 24.3 0 0 0 -.513-1.31c.144-.428.137-.905.05-1.342.134-.476-.023-1.078-.26-1.338.684-.078.798-1.033.67-1.64-.176.454-.667.493-1.04.327-.41-.113-.067-.318.057-.554.197-.5.095-1.072-.02-1.582-.14-.644-.773.018-1.07-.218-2.502-1.083-4.07-.455-4.075.106-.327.118-.47.456-.705.69-.333.118-.635.315-.927.518-.41.144-.09.503-.057.78.038.314.227.653.508.67.1.006.17-.018.234.015.063.034.657-.003.8-.18.142-.175.376-.24.602-.065.322.248.147.706.362 1.022-.023.157-.218-.077-.283-.118-.2-.125-.565-.16-.756-.172-.585-.036-1.19.19-1.795-.063-.342-.142-.66-.853-.284-1.34a.977.977 0 0 0 -.6.536c-.17.352-.158.995.043 1.32.298.485.706.412 1.203.454.35.03.812-.07 1.07-.037-.278.226-.48 1.027-.67 1.217.49.037 1.288-.323 1.01.278-.306.277-.607.805-1.07.676-.387-.093.095-.53-.148-.617-.35-.062-.663.62-.852.12-.354-.568-.85-.998-1.31-1.462-.612-.62-1.295-1.183-1.762-1.947-.194-.328-.552-.743-.31-1.144.288-.41.29-.968.023-1.365.077-.34.18-.874-.024-1.19-.276.076-.376.467-.72.645-.272-.21-.536-.036-.755.085-.108-.433-.487-.73-.88-.663-.234-.313-.817-.634-1.203-.67z"/><path d="m53.673 41.408c-.05-.002-.092.018-.125.07.13.465-.53.78-.813.44-.305-.455-.554.353-.473.638.08.387.594.14.78.467.152-.167.328-.025.16.15.226.446.673.724 1.058 1.004.15.03.628.433.23.38-.45-.28-.954-.502-1.29-.943-.256.367-.21-.555-.54-.533-.223-.12-.775-.11-.78.18.34.072.477.572.23.832-.18.254-.77-.012-.507.465.174.423.845.706 1.104.365.152-.2.227-.183.257.063.045.37.536.47.78.665-.315.072-.742.364-.636.767.324-.01.82.198.604.66-.22.2-.09.485.18.31.293-.074.295-.523.48-.603.208.363.65.636.638 1.104.035.358-.157.665-.585.526.307.317.7.458 1.02.367.203-.183.346.057.07.12-.39.07-.79.413-.8.86.304-.057.713-.027 1.006-.248.153-.175.668-.184.26.036-.125.216-.62.235-.575.474.348.14.745.072 1.088-.154-.2.62-.676.36-.737.51.287.38.88.167 1.25.01-.16.322-.35.296-.596.41.097.22-.21.843-.067.89.253-.272 1.11-.56 1.467-.39-.547.127-.724 1.27-.595 1.666.594-.395.902-1.25 1.317-1.816.247-.38.56-.703.866-1.03-.316-.183-.28-.634-.296-.97-.018-.417-.73-.938-.984-1.247-.253-.308-1.067-.658-1.328-.955.584.318 1.02.398 1.402.767.34.33.647.71.96 1.076.024-.472-.434-.83-.716-1.15-.896-1.01-1.988-1.837-2.74-2.99-.262-.297-.195-.736-.187-1.043.007-.167.334-.21.32-.517-.012-.265-.163-.58-.4-.337-.433.06-.54-.46-.48-.783-.372-.275-.695.27-.455.62-.05.263.404.28.188.5.035.303.517.586.355.84-.4-.22-.596-.79-.765-1.226-.018-.204-.053-.38-.227-.192-.163-.14.312-.363.09-.61-.05-.18-.288-.48-.463-.49zm9.374.635c-.393-.002-.763.083-1.112.313-.076.202-.717.513-.925.99-.358.265-.83.355-1.117.722-.122.322.506-.09.223.265-.364.457.37.732.748.563.357-.16.778-.377 1.165-.146.45.186.29.758.505 1.117.1.4-.235.82-.628.704-.293.03-.698-.12-.877.197-.115.203-.414.72-.223.774.18.052.404-.413.574-.382-.09.178-.144.535.078.29.12-.13.193-.29.425-.364-.163.107-.323.56-.026.426.164-.074.227-.185.42-.417-.064.195.025.996.278.78 0-.373.238-.884.194-1.147.29-.02-.083.856.35.558.362-.25.13-.61.004-.92.356-.038.545.853.838.694-.17-.276-.045-.62-.162-.915-.078-.294-.415-.51-.608-.53.285-.263.553.05.742.213-.077-.463-.59-.694-.89-.756.475-.33.776.434 1.105-.005-.695-.032-.602-.547-1.29-.723.492-.15.81.078 1.093.384.155.186.384.094.584-.054.054.363-.65.572-.464.937.21.407-.154 1.178.233 1.58-.36.605-.57-.047-.807-.18.24.51-.886.675-.62 1.195-.388.046-.802-.184-.816-.547-.562.47-.943 1.16-1.732 1.354-.31.043-.48-.294-.547-.513-.278.17-.423.575-.41.92-.003.495.534.636.894.485.212-.025.66-.462.69-.272-.267.362-.694.565-1.123.546-.423.206-.69.658-.97 1.042-.345.502-.608 1.073-.99 1.543.938-.044 1.587-.886 2.327-1.404-.193.49-1.04 1.208-1.486 1.476 1.21.388 1.866-.714 2.557-1.545-.29 1.08-.277 1.968-.73 3.224.375-.234.64-.55.887-.928.202-.334.147-.94.68-1.126-.11.35-.483 1.15-.425 1.506.448-.274 1.087-.764 1.254-1.306.286-.744-.694-1.36-1.312-2.234.89.267.778 1.185 1.777 1.49.287.087.75.027.895-.275-.4-.14-.622-.558-.748-.985-.1-.4-.21-.803-.465-1.126-.106-.15-.39-.636-.272-.853.173.284.894 1.136.98 1.8.558-1.133.768-1.79-.016-2.873.704.098.662 1.075.805 1.516.556-.99.627-1.443-.04-2.355.464.053.41.556.75.623.24.08.723.122.82-.056-.417-.006-.704-.434-.775-.84-.05-.43-.416-.805-.49-1.16.396.192.586.89.724 1.305.36-.73.147-1.523-.282-2.163-.164-.353.172-.164.25.022.338.16.757-.086.93-.413.17-.343.182-.773.03-1.128.03-.258-.085-.346-.244-.343-.234.005-.564.203-.697.348-.134.42-.62.204-.543-.137.13.262.613-.066.557-.217-.924-.24-1.758-.56-2.507-.563zm3.056 2.714c-.194.02-.494.046-.303.337.16.51.12 1.084-.065 1.58-.176.418.406.528.67.532-.03.16-.12.352.126.413.243.134.42.577.588.648-.007-.066-.004-.133-.005-.2.03-.723-.532-1.235-.995-1.668.43.053.78.38 1.017.756.008-.452-.522-1.327-.84-1.565.542.373 1.266.173 1.182-.607-.522.316-1.04.046-1.374-.226zm-.914 2.918c-.01.65-.405 1.415-.758 1.906-.2.335-.316.718-.523 1.048-.312.317.332.896.7.802-.065.33-.404.586-.61.64-.32.07-.735-.057-.75.473-.01.34.008.692.053 1.028.094.522.36.988.702 1.36.07.05.026-.222.06-.26.13-.665.43-1.29.442-1.98.053-.195.014-.717.218-.673.04.43-.166.942.12 1.315.34.502.86.847 1.426.967.028-.22-.367-.585-.41-.907-.21-1.25-.44-2.268-1.08-3.36.898.32 1.118 1.746 1.25 2.482.22-.185.23-.554.307-.88.1-.64.103-1.354-.266-1.904-.233-.41-.59-.718-.863-1.092.39.095.518.248.683.398.458.414.677 1.15 1.302 1.345.282.182.576.148.31-.24-.373-.547-.416-1.29-.71-1.895-.426-.778-.942-.46-1.603-.57zm-11.29 4.73c-.204-.01-.42.1-.482.307.064.387.192.84.545.993-.093.257.68.458.47.692-.308-.183-.636-.394-.867-.696-.004-.297-.4 0-.25-.294.203-.383-.43-.965-.673-.69.148.305.01.732-.314.83-.268.126-.676-.468-.703.08-.08.527.796.68 1.008.395.08.466.663.464.997.635.145.104.704.067.56.322-.443.053-1.037-.305-1.333-.294.02.453-.16-.268-.42-.284-.302-.02-.808-.147-.94.23.183.104.548.186.556.518.078.41-.463.406-.5.672.27.506 1.42.238 1.61.054.02.36.57.876 1.128 1.132.14.065.448.034.517.103-.185.063-.144.105-.14.246.008.28.536.683.49.133.18-.484.873-.218.844.253.377-.167.566-.898-.133-.95.32-.227.757.11.99-.152a.54.54 0 0 1 .752.325c.358-.15.36-.652.438-.982.313.134.04.776.144 1.1.014.15.06.334.242.606.003-.537.417-1.34.42-1.816.15.444.005.762-.016.976.317-.176.516-.743.657-1.143.048.173.04 1.046.372 1.37-.02-.637.292-1.146.373-1.807.133.202.07.718.043.86.35-.19.688-.954.722-1.29.214.23.45 1.022.705 1.162-.494-.003-.53-.56-.644-.673-.066.308-.553.668-.21.91.927.817 2 1.43 2.894 2.292.308.273.577.608.786.967-.028-.04-.545-.378-1.224-.568.32.335 1.026.985 1.092 1.48-.528-.43-.234.912.06 1.375.217-.88.877-2.872.266-4.392.904 1.675.376 3.393-.145 5.13-.274.82-.337 1.695-.54 2.533-.1.397-.24.825-.6 1.036-.275.232-.552.23-.872.21-.025 1.01.945.355 1.377.207-.42.474-.673 1.16-.624 1.794.03-.318.393-1.026.906-1.293-.356.5-1.124 1.855-.54 2.376-.004-.645.393-1.17.743-1.65.334-.568.652-1.502.734-2.176.09.743-.216 1.237.292 1.825.22.294.532.56.605.945.028.514-.38.876-.604 1.284-.3.43-.604.894-1.044 1.17-.18.1-.445 0-.493.212-.187-.287-.997-.075-.614.283.197.53-.727.54-.46.985.43.22.698-.338.98-.55.233-.037.35-.8.592-.484-.076.398-.58.807-.66 1.027.2.297-.358.006-.483.224-.296.16-.557.512-.464.885.224-.03.607-.353.827.037.23.236.012.514-.033.726.127.11.33.067.48.05.316-.094.76-.554.487-.89-.247-.18-.063-.253.127-.205.066-.406.35-.747.373-1.172.003-.154 0-.733.212-.455.064.37-.108.88-.103 1.154.326-.008-.3.177-.22.405-.188.235.13 1 .245.446.206-.485.946-.267.943.248.382.055.633-.46.635-.82.076-.362-.24-.457-.448-.605.152-.227.632-.28.447-.656.307-.045.68.512 1.008.152-.328-.094-.452-.57-.177-.812.52-.223.387-.305.01-.508.195 0 .99-.115.928-.246-.112-.234-.687-.092-.793-.393.436.083 1.076.106 1.464-.253-.317-.086-.853-.246-1.12-.37.568-.07.916-.2 1.08-.526-.18.064-.547-.012-.82-.153.374.032 1.046-.034 1.37-.235-.333-.242-.978-.1-1.3-.28.375-.04 1.025-.17 1.275-.5-.214-.182-.613.074-.864-.204.54-.034.888-.097 1.25-.565-.408.06-1.026-.042-1.318-.352-.425-.41-.836-.838-1.316-1.175.167-1.42.17-2.87-.07-4.278-.118-.478-.507-1.704-.704-2.423.628 1.432.898 2.686 1.906 3.902.906 1.32 1.85 1.234 2.675 1.85.494.787.48 2.002.476 3.182 1.203-1.366.43-3.325.414-3.44 1.462.566 2.732.33 2.98-.195-.655-.06-1.656-.317-2.223-.563a2.817 2.817 0 0 1 -.134-.063c1.1-.177 1.403-.622 1.807-1.495-.59.39-1.36.784-1.56.745.79-1.272 1.038-1.658 1.077-2.01.017-.16.027-.316.032-.47h-1.104c-.223 1.178-1.076 2.35-1.597 2.56-1.048.426-2.05-.524-2.538-1.596-.613-1.35-1.25-2.605-1.828-3.96-.336-.825-.647-1.677-1.108-2.432-.17-.166-.526-.216-.258.083.36.594.69 1.225.877 1.907-.157.18-.305-.41-.41-.56-.314-.638-.624-1.287-1.042-1.855-.18-.152-.53-.718-.565-.184-.106.448-.34.933-.183 1.397.234.145.175.44-.105.245-.565-.31-.96-.918-1.16-1.553-.127-.16-.12-.58-.15-.79-.404.562-1.557 1.533-1.67.955-.306.387-1.046.774-1.498.863.535-.558.753-1.71.853-2.478-.36.26-.948.593-1.388.637-.468.024-.938-.19-1.323.206-.488.285-1.03.562-1.86 1.19.627-.772 1.33-1.045 2.132-1.537-.402.168-.87.046-1.24.315-.638.34-1.213.802-1.863 1.115-.425-.09-.033-.808-.324-1.11-.486.225-.734-.42-.574-.8a.418.418 0 0 0 -.316-.157zm9.62 7.135c-.15.005-.42.15-1.31.426-.678.255-2.085.236-3.187.89-.523.386-1.085.927-1.77.788-.328-.012-.49-.333-.57-.602-.405.224.077.862.318 1.012-.41.116-.482-.294-.708-.51-.22.477.162.653.343.986-.53.002-1.29.538-1.6.956.283-.2.698-.368 2.032-.61-.865.4-2.36.433-2.443 1.662.58-.447 1.25-.722 1.937-.913.817-.16 1.236-.823 2.03-1-.336.313-1.058.706-1.09 1.248-.034.73.193 1.432.32 2.138.018.54-.44.888-.808 1.16-.352.198-.71.483-1.125.467-.233-.064-.303-.414-.55-.306.284-.308-.5-.803-.476-.32.052.336-.23.69-.56.594-.192-.064-.405-.25-.39.11.12.427.825.267.984-.023 0 .347.632-.117.49.24-.308.165-.887.212-1.06.315-.054.414-.323-.263-.573-.108-.22-.07-.81.397-.337.352.407-.047.656.67.26.88-.172.1-.517.043-.246.312.27.314.84.405 1.08.004.1-.165-.02-.57.232-.304.386-.118.65-.482.94-.765.13-.19.535-.283.26.024-.296.244-.503.592-.814.818.3.206-.357.045-.404.302-.18.13-.244.844.01.654.158-.413.82-.498.924 0 .178.237-.358.707.09.59.462-.046.684-.677.435-1.042.063-.232.24.232.344-.076.17-.153.412-.253.432-.506.153.14.16.8.547.615.03-.31.313-.598.62-.465.186.053.353.52.422.06.15-.282-.33-.6-.165-.758.267.18.335-.03.28-.265.182.25.942.455 1.257.448-.296-.226-.7-.59-.92-.904.24-.187.53.465 1.438.292-.39-.043-.797-.693-1.104-.826.37-.146.63.432.96.093-.26-.08-.032-.308-.538-.468.385-.06 1.124.41 1.215-.004-.406.04-.455-.216-.615-.4.245.14.39-.04.407-.29.047-.706-.3-1.8-.576-2.415.103-.31.582-.305.81-.546.57-.39 2.768-1.057 3.266-1.55-.57-1.276-.15-2.01-.484-2.307-.116-.103-.164-.153-.255-.15z" fill="#fcfcfc"/><path d="m60.36 45.94c-.548-.01-1.036-.076-1.333-.638-.145-.274-.18-.487-.04-.748-.434.174-.395 1.527.05 1.706.392.16.825.197 1.228.12.204-.037.542.007.728-.09.185-.096.882-.005.96.03a.285.285 0 0 0 .243-.015c.01-.568-1.48-.36-1.836-.365z" fill="#fcef3c"/><path d="m61.097 45.14a2.3 2.3 0 0 1 -.395.052c-.033 0-.043.042-.03.068.046.172.163.31.286.424.03.02.052-.02.05-.05.02-.155.06-.307.125-.448.01-.023-.01-.053-.036-.047zm-.043.827c-.038.018-.027.073-.035.11a.682.682 0 0 0 .007.214c.017.038.056.015.085.014.055-.01.115-.004.17-.017.03-.02.005-.057-.015-.074-.065-.076-.122-.157-.18-.24a.032.032 0 0 0 -.033-.006z" fill="#fcef3c" stroke-width="1.01"/><g fill="#c00"><path d="m60.288 44.775c-.166-.107.238.152 0 0z"/><path d="m60.707 44.7c-.11-.142.126.165 0 0z"/><path d="m60.47 44.443c-.195-.114.24.14 0 0z"/></g><path d="m62.156 44.01c-.367-.004-.263-.674-.614-.37-.147-.236.42-.346.484-.61.2.025.53.193.764.14.333-.076.548-.39.593-.374.07.02-.524.61-.63 1.05a.61.61 0 0 1 -.597.164z"/><path d="m62.5 43.815c.355-.036.315-.503-.038-.474-.21-.25-.548-.203-.538.192.042.274.366.33.577.283z" fill="#fff"/><path d="m62.243 43.697c-.38-.217.12-.62.15-.11.14-.067.368-.05.118.076a.412.412 0 0 1 -.267.034z"/><path d="m62.93 74.412c.158-.31.74-.425.582-.85-.3-.4-.72.163-.687.525.006.056-.027.5.104.325zm2.746-.214c.285-.214.428-.815-.074-.805-.45-.02-.202 1.166.074.805zm2.586-2.375c.065-.287.018-.753-.338-.758-.464.066-.18.545.11.625.04.068.197.372.228.133zm-5.372-.12c.5-.216.03-.722-.326-.516-.22.04-.718.407-.222.386.18.045.354.225.548.13zm-7.84-.514c.16-.228.535-.477.32-.798-.44-.35-.737.462-.44.8.045.09.08.08.12-.003zm2.87-1.45c-.496.072-.07.817.073.95l.08-.14c.134-.355.237-.64-.154-.81zm-5.208-.483c.293-.102.78.208.913-.205-.02-.533-.663-.32-.853-.02-.038.05-.302.335-.06.225zm1.765-1.848c.693-.764-.595-.922-.782-.84.146.266.38 1.014.782.84zm1.022-9.083c.27-.152.463-.687.126-.87-.48-.11-.265.694-.176.896zm-3.822-2.892c.53-.328-.317-.836-.55-.365-.213.124-.234.394.067.335.157.008.33.103.483.03zm.63-2.092c.49-.327-.04-.927-.464-.87-.19-.068-.59.033-.256.218.22.195.296.57.59.657.042.01.087.008.13-.004zm2.374-.18c.442-.083.24-.882 0-.92-.13.266-.472.592-.227.893.06.064.157.08.228.028zm-1.322-5.952c.436-.21.028-.827-.308-.457-.095.18-.59.376-.16.445a.884.884 0 0 0 .468.013zm-1.518-3.194c.44-.75-.465-.768-.783-.39.194.298.597.462.782.39zm3.846-2.433c-.48.108-.696.958-.368.954h.12c.346-.005.377-.604.248-.954zm-2.5.242c.504-.355-.233-.914-.634-.98.154.257.23 1.264.634.98z" fill="#fcef3c"/><path d="m61.24 44.923c-.208.238-.264.544-.28.726a.958.958 0 0 1 -.257-.34c-.045-.11-.037-.164-.037-.164l-.15-.015s-.005.108.05.245c.052.126.16.285.36.447-.047.15-.112.475.084.753l.118-.095c-.126-.18-.11-.386-.08-.523.034.05.07.106.12.17.127.163.298.344.502.397l.036-.154c-.143-.037-.306-.193-.424-.345-.105-.134-.167-.244-.183-.27.004-.112.033-.476.25-.722z" stroke-width="4"/><path d="m67.223 69.214c-.005-.638.873-1.415.734-1.902-.184-.147-.83-.095-.592-.486.252.29.925.174.79.785-.05.363-.78 1.155-.932 1.604zm0-5.518c-.104-1.082-.062-2.186-.33-3.245-.13-.257.114-.452.187-.12.25 1.008.19 2.063.188 3.095-.027.035.023.295-.044.27zm-9.415-8.71c.46-.332 1.32-.34 1.616-.456.202-.163-.134-.717.22-.655.052.31.118.818-.29.875-.336-.04-1.21.122-1.546.236zm.816 12.388c.382-1.065 1.535-.756 1.362-1.316-.186-.078-.35-.602-.044-.456.174.277.476.816.01.948-.273.077-.835.24-1.328.824zm7.236-23.15c-.226-.246-.092-.68-.09-1 .034-.48.74-.35.483.096-.04-.32-.408-.194-.357.125-.066.253.033.742.34.448.04.202-.206.38-.376.332zm-7.534 6.33c-.326.05-.662-.047-.764-.495-.053-.234-.356-1.133-.578-1.5.565.393.733 1.852 1.122 1.787.25-.053.185.03.53.07z"/><path d="m63.815 61.635c-.018-.09-.145-.132-.26 0-.812.55-1.734.76-2.603 1.132-.004.082.197-.035.233-.012.854-.24 1.74-.416 2.515-.936.096-.06.125-.13.115-.185z"/><path d="m61.09 42.355-.51-3.168s.136.132.22.176c.094.05.217.047.29.123.097.1.062.41.062.41s.116-.15.21-.193c.21-.094.34-.035.406.085.06.115.06.287.006.436-.05.135-.19.193-.202.314-.005.042-.008.07.034.1.068.05.192.046.256.1.106.092.024.304.024.304s-.077-.11-.168-.124c-.088-.015-.17.095-.248.054-.085-.056-.132-.107-.232-.1-.082.004.032.168.067.24.074.153.364.26.514.292.266.058.472.047.76-.01.232-.044.395-.128.57-.26.226-.14.42-.573.337-.682-.035-.046-.104.026-.144.07-.075.08-.017.233-.12.31-.08.06-.267-.01-.36.024-.116.04-.193.17-.193.17s-.08-.15-.04-.264c.035-.1.236-.12.224-.232a.374.374 0 0 0 -.018-.085c-.055-.158-.205-.23-.288-.364a.435.435 0 0 1 -.022-.396c.033-.082.173-.155.264-.155a.88.88 0 0 1 .33.084c.1.04.27.155.27.155s-.14-.288-.164-.45c-.015-.11 0-.23.052-.33.092-.174.39-.41.407-.41.018 0 .315.236.407.41.052.1.067.22.052.33-.023.162-.164.45-.164.45s.17-.115.272-.156a.88.88 0 0 1 .328-.085c.09 0 .23.072.264.154a.435.435 0 0 1 -.02.397c-.085.136-.235.207-.29.365a.375.375 0 0 0 -.018.085c-.012.112.19.132.224.232.04.114-.04.264-.04.264s-.077-.13-.192-.17c-.093-.033-.282.035-.36-.024-.104-.077-.046-.23-.12-.31-.04-.044-.11-.116-.145-.07-.082.11.11.54.336.683.175.13.338.215.57.26.288.056.495.067.76.01.152-.033.442-.14.515-.292.036-.073.15-.237.067-.242-.1-.005-.147.046-.232.102-.077.04-.16-.07-.248-.054-.09.015-.168.124-.168.124s-.082-.212.024-.303c.064-.056.188-.05.256-.102.042-.03.04-.058.034-.1-.013-.12-.152-.18-.2-.314-.056-.15-.057-.32.005-.436.064-.12.196-.18.405-.085.094.042.21.192.21.192s-.034-.308.063-.41c.074-.075.197-.073.29-.122a1.31 1.31 0 0 0 .22-.176l-.518 3.3c-.883-.074-1.698-.15-2.58-.15-.848-.002-1.738.077-2.585.157z" fill="#fcef3c" stroke="#000" stroke-width=".182209"/><g fill="#c00"><path d="m48.33 44.812c-.176-.104.254.148 0 0z"/><path d="m48.777 44.74c-.118-.14.134.16 0 0z"/><path d="m48.526 44.49c-.21-.11.256.134 0 0z"/><path d="m70.47 41.898c-.178-.104.252.148 0 0z"/><path d="m70.915 41.827c-.118-.14.134.16 0 0z"/><path d="m70.664 41.575c-.21-.11.255.135 0 0z"/></g><path d="m71.57 39.055c.577 0 1.222.105 1.855.228.066.142 1.624.407 1.834 2.59.023.24.302.298.39.578.82 2.58-.14 4.81-.354 5.54 1.177-.44 2.436-.584 2.588.075.093.407.35.807-1.124 1.532.458-.654.042-.93-.373-.967-.626-.054-1.494.573-1.513.63-.577 1.35-.09.298-1.02 2.294.594-.084 1.19.915-.295 1.754.084-.417.047-.73-.125-.74-.695-.034-.87.535-1.374 1.374-.686 1.146-.322 2.22.174 3.06.52.878 1.6 1.332 2.24 1.02.68-.33 1.237-.7 1.547-1.26v2.398c-.56.322-1.25.577-2.238.92-.55.55-.593 2.41-.43 3.174-1.302-.235-1.68-1.704-1.25-3.136-.97.365-1.59.303-2.518-.01-.175-.062-.788-.563-.937-.735.68.025 1.92-.17 2.383-.397-1.058-.4-1.432-1.203-1.74-2.187.463.54.693.855 1.61 1.025-.338-.548-.02-.052-.8-1.292-.16-1.045-.165-1.18-.042-1.672.56-2.25.878-2.178 1.542-3.1.077.064.23-.925-.057-1.157.19-.004.453-.136.76.24.795-1.087 1.46-3.07 1.562-3.38.248-.765.35-.89.45-1.382.198-.98.205-1.73.164-2.172-.272-1.113-.25-.527-1.162-.962-.28-.133-.31-.01-.85-.084a5.81 5.81 0 0 1 -.797-.352c-.45-.26-.783-.733-1.15-1.06-.215-.19-.425-.38-.572-.46.46-.057.33-.403.92.058-.137-.53-.397-.562-1.124-.51.456-.852.954-.573.9-.68-.227-.064-.72.12-.944.172.32-.734 1.024-.963 1.87-.965z"/><path d="m71.832 39.39c.267.002.5.017.645.037.83.11 1.71.568 2.154 1.252.23.35.498 1.172.448 1.653.332.208.597.825.644 1.402.067.838.052 2.227-.615 4.453 0-.064.946-.33 1.73-.357.937-.03 1.502.83.107 1.56.9-1.774-2.244-.564-2.198-.23-.312.9-.744 1.75-1.248 2.595.42-.283 1.432.623.23 1.28.167-.836-.5-.707-.747-.536-.632.44-1.25 1.562-1.453 2.17-.464 1.394 1.057 3.312 1.88 3.586.65.216 1.288.067 1.83-.274v1.3c-.565.234-1.117.36-1.63.675-.588.766-.572 1.95-.567 3.098-1.43-1.33-.513-3.236-.493-3.35-1.74.552-3.248.322-3.543-.188.78-.06 1.97-.31 2.643-.55.057-.02.11-.04.16-.06-1.308-.172-1.667-.605-2.148-1.454.7.38 1.615.762 1.852.724-.938-1.238-1.232-1.614-1.278-1.957-.3-2.228 1.07-3.916 1.52-4.355.167-.15.13-.885.014-1.125.342.026.42.414.51.478 1.392-2.002 3.63-6.976 1.915-8.3.062-.01-.04-.05-.06-.05-.182-.01-.45-.12-.687-.19-.185-.053-.655-.026-.845-.063-.576-.112-.423-.3-.994-.437-.31-.074-.528-.56-1.21-1.074.814-.115.41.79 1.63.218-.764-.24-.413-.182-.796-.512-.703-.607-.034-.18-1.227-.493.702-.674 1.728.166 2.44.015-.396-.374-1.75-.92-2.52-.43 0-.426 1.11-.524 1.91-.513z" fill="#fcfcfc"/><g fill="#c00"><path d="m76.518 41.844c.177-.104-.254.148 0 0z"/><path d="m76.072 41.773c.117-.14-.135.16 0 0z"/><path d="m76.322 41.52c.21-.11-.255.136 0 0z"/></g><path d="m75.417 39c-.578 0-1.222.106-1.855.23-.067.14-1.624.406-1.835 2.588-.023.242-.303.3-.392.58-.817 2.578.142 4.807.356 5.537-1.177-.438-2.436-.583-2.587.076-.094.408-.35.808 1.123 1.533-.457-.654-.04-.93.374-.967.626-.054 1.494.573 1.513.63.577 1.35.088.298 1.02 2.295a.518.518 0 0 0 -.258.03l.87.993c.54.073.727.61 1.18 1.365.688 1.146.324 2.22-.173 3.06-.34.575-.92.97-1.46 1.084v1.31c0 .17-.138.306-.307.306h-.83c.31.12.656.24 1.05.377.55.55.593 2.41.43 3.175 1.3-.235 1.68-1.704 1.25-3.136.97.365 1.59.303 2.517-.01.175-.062.79-.563.938-.735-.68.024-1.92-.172-2.383-.398 1.058-.4 1.432-1.203 1.74-2.187-.463.542-.693.856-1.61 1.027.337-.55.018-.053.798-1.293.16-1.046.167-1.18.044-1.672-.562-2.25-.88-2.18-1.544-3.102-.077.065-.23-.925.057-1.157-.19-.005-.453-.137-.76.24-.794-1.088-1.46-3.07-1.56-3.38-.25-.766-.352-.89-.45-1.383-.2-.982-.207-1.732-.165-2.173.27-1.113.248-.527 1.16-.962.28-.133.31-.01.85-.084a5.81 5.81 0 0 0 .797-.352c.45-.26.785-.733 1.15-1.06.216-.19.426-.38.573-.46-.46-.057-.33-.403-.92.058.138-.53.398-.562 1.125-.51-.456-.852-.955-.573-.9-.68.226-.064.72.12.943.172-.32-.734-1.024-.963-1.87-.965z"/><path d="m75.155 39.335c-.267.003-.5.02-.646.038-.83.11-1.71.568-2.154 1.252-.228.35-.497 1.174-.448 1.654-.33.207-.596.824-.643 1.4-.068.84-.052 2.228.614 4.454 0-.064-.947-.33-1.73-.357-.938-.032-1.502.83-.107 1.558-.9-1.773 2.243-.563 2.197-.23.313.9.744 1.752 1.248 2.596-.106-.07-.25-.066-.387-.01l.553.632a.77.77 0 0 1 .353.123c.632.442 1.252 1.563 1.454 2.17.463 1.395-1.058 3.313-1.88 3.587a2 2 0 0 1 -.208.056v1.152c0 .17-.137.306-.306.306h-.04c.12.055.238.116.354.187.588.766.57 1.95.567 3.098 1.43-1.33.512-3.235.493-3.348 1.738.55 3.247.32 3.543-.19-.78-.058-1.97-.308-2.643-.548a3.74 3.74 0 0 1 -.16-.06c1.307-.173 1.667-.606 2.147-1.455-.7.378-1.616.76-1.853.723.938-1.238 1.233-1.613 1.28-1.957.298-2.228-1.07-3.916-1.522-4.355-.167-.148-.13-.884-.013-1.124-.344.026-.42.414-.512.478-1.39-2.002-3.63-6.976-1.915-8.3-.06-.01.042-.05.06-.05.183-.01.45-.12.687-.19.186-.053.656-.026.846-.063.576-.11.424-.3.995-.436.31-.074.528-.56 1.21-1.074-.814-.115-.41.79-1.63.218.765-.24.413-.182.796-.512.703-.607.034-.18 1.227-.493-.7-.674-1.728.166-2.44.015.397-.374 1.75-.92 2.52-.43 0-.426-1.11-.524-1.908-.513z" fill="#fcfcfc"/><path d="m74.514 44.406a8.71 8.71 0 0 1 -.183 1.668c-.098.493-.2.617-.45 1.382-.1.31-.766 2.293-1.56 3.38-.307-.377-.57-.245-.76-.24.288.232.133 1.22.056 1.156-.664.923-.98.852-1.542 3.102-.123.493-.117.627.043 1.672.78 1.24.462.743.8 1.292-.918-.17-1.148-.484-1.61-1.027.307.985.68 1.79 1.74 2.19-.464.225-1.704.42-2.384.396.15.172.763.673.938.735.928.313 1.55.375 2.518.01-.43 1.432-.052 2.902 1.25 3.136-.163-.763-.12-2.624.43-3.174l.02-.007v-1.968c-.57-.084-1.205-.49-1.567-1.102-.496-.84-.86-1.915-.172-3.06.503-.84.68-1.41 1.374-1.373.17.01.21.32.123.738 1.484-.838.89-1.837.294-1.753.932-1.996.443-.945 1.02-2.295.02-.056.887-.683 1.513-.63.415.037.83.314.373.967 1.473-.726 1.218-1.126 1.124-1.532-.15-.66-1.41-.515-2.588-.076.157-.537.717-1.885.677-3.586h-1.476z"/><path d="m74.616 43.433c.86 1.796-1.072 5.99-2.322 7.788-.09-.063-.167-.45-.51-.477.117.24.154.976-.013 1.125-.45.438-1.82 2.126-1.52 4.355.046.343.34.72 1.28 1.957-.238.038-1.155-.345-1.854-.725.48.85.84 1.282 2.147 1.455-.05.02-.103.04-.16.06-.673.24-1.864.49-2.643.55.296.51 1.805.74 3.543.19-.02.11-.938 2.017.493 3.347-.004-1.134-.02-2.302.545-3.07v-1.68c-.058-.013-.117-.03-.177-.05-.823-.272-2.343-2.19-1.88-3.585.202-.607.822-1.728 1.454-2.17.246-.172.915-.3.747.536 1.203-.657.19-1.563-.23-1.28.505-.845.936-1.695 1.248-2.595-.045-.334 3.097-1.544 2.198.228 1.395-.728.83-1.59-.106-1.557-.784.027-1.73.293-1.73.358.666-2.226.682-3.614.614-4.452a2.535 2.535 0 0 0 -.044-.305z" fill="#fcfcfc"/><g stroke-linecap="round" stroke-linejoin="round" stroke-width="2.898"><path d="m73.028 58.295h1.182v2.02h-1.182z" fill="#fff"/><path d="m73.107 58.28.998-.256.62 1.196-.998.255z" fill="#fff"/><path d="m73.26 60.284.17-.037.07-.2.08.194.17.027-.12.157.035.215-.154-.098-.148.108.025-.217z"/><g fill="#fff"><path d="m73.467 59.98.43-.26.4.88-.43.26z"/><path d="m73.086 59.73.488.122-.344.902-.488-.123z"/><path d="m73.16 59.62.482.148-.388.884-.482-.146z"/><path d="m73.49 60.075.417-.284.448.857-.416.284z"/></g></g><g transform="matrix(.111 0 0 .111 30.258 5.664)"><path d="m163.662 268.278h272.975v17.735h-272.975z" fill="#600" fill-rule="evenodd"/><path d="m188.948 250.747h241.2v23.07h-241.2z" fill="#540" fill-rule="evenodd"/><path d="m300.587 31.158-.516 2.408-21.614-1.712c.064-7.157-.302-5.51-1.44-12.776l18.134 7.896-6.283-23.442c7.76 2.018 4.005 2.604 11.765 1.058.05 26.482-.01-.05-.045 26.568z" fill="#ffea85"/><path d="m299.704 31.396.517 2.408 21.615-1.712c-.063-7.157.302-5.51 1.44-12.776l-18.133 7.896 6.282-23.442c-7.76 2.018-4.004 2.604-11.764 1.058-.05 26.482.01-.05.045 26.568z" fill="#f7de63"/><path d="m300.258 31.226-.517-2.408-21.613 1.712c.063 7.157-.302 5.51-1.44 12.776l18.133-7.896-6.282 23.442c7.76-2.018 4.004-2.604 11.764-1.058.05-26.482-.01.05-.045-26.568z" fill="#f4cf31"/><path d="m169.544 151.153 9.078 29.708 39.784 85.464 178.902 1.61 33.78-106.707s8.2-4.38 5.422-12.74c4.057-9.14-10.03-30.372-13.083-31.282-20.855-16.45-44.3-16.82-44.3-16.82s.148-15.676-13.488-18.16c-5.68-1.05-30.166-28.515-38.498-26.17-13.962 3.917-34.948 3.023-34.948 3.023s-1.555 9.852-18.87 5.654c-7.656-1.854-20.146 16.112-25.4 16.88-12.086 1.82-47.79 28.442-47.79 28.442s-5.473 11.266-12.754 15.114c-3.303 1.75-10.72 5.425-13.497 12.597-3.228 8.22-4.34 13.388-4.34 13.388z" fill="#e9001a" fill-opacity=".98"/><path d="m174.673 158.48c5.6 6.893 13.52 16.172 20.477 19.505 5.42 2.575 13.26 1.59 18.966 1.477 4.012-.038 13.312-1.477 13.312-1.477s-20.086-16.096-23.55-28.518c-2.293-8.18-.72-21.274-.72-21.274s4.314 14.835 8.38 22.03c6.225 11.022 29.203 20.983 29.203 20.983s-9.586-21.777-9.22-32.23c.415-11.78 5.6-29.276 12.816-34.502 6.41-4.66 14.303-5.037 14.303-5.037s-2.92 10.87-6.618 15.527c-4.143 5.19-7.764 16.93-6.67 24.77 2.215 15.565 15.58 31.396 25.61 37.494 8.52 5.15 30.74 0 30.74 0s-7.945-6.742-10.237-11.25c-4.794-9.43-11.28-25.41-9.223-36.773 1.64-9.09 16.387-20.262 16.387-20.262s-6.723 18.027-5.133 25.412c3.725 17.12 20.867 29.503 32.278 36.13 9.223 5.34 23.994 10.833 32.93 4.508 5.106-3.598 10.212-14.922 10.24-23.254.025-7.992-6.124-16.514-9.745-22.497-2.892-4.772-13.782-24.845-13.782-24.845s13.6.076 18.16 3.863c5.34 4.47 15.84 13.938 20.945 25.83 2.11 4.886 1.797 17.99 2.188 21.664 1.173 11.248-8.205 28.215-8.205 28.215s5.653-3.826 13.86-11.25c4.194-3.824 8.857-11.626 10.655-18.368 1.693-6.4.625-22.875.625-22.875s6.59 18.937 6.59 27.76c.027 7.613-5.574 23.974-5.574 23.974s13.08-10.49 17.925-16.51c5.836-7.197 10.115-29.565 10.115-29.565l4.184 16.875-37.876 101.993-193.594 1.477-36.246-93.226 4.563-12.03-1.21 5.27c0 .038-2.51-4.77 2.153.986" fill="#c50001"/><path d="m171.71 150.813s11.617-18.134 15.81-19.618c3.492-1.236 11.855-17.42 15.45-17.632 4.013-.212 5.914 17.067 9.874 16.078 3.673-.883 4.377-.494 7.815-2.437 5.6-3.144 9.17-15.333 14.432-19.36 3.622-2.72 16.778-19.643 16.778-19.643l-11.776 7.49-9.237 2.985-24.736 4.49-10.413 5.72-12.33 10.677-15.234 30.955 14.747-13.638z" fill="#c50001"/><path d="m338.49 84.678s21.7 13.532 26.26 17.7c4.69 4.322 14.98 12.686 18.757 18.168 1.406 2.067 7.294 11.904 8.05 14.44.78 2.664 1.38 6.486 1.12 9.305-.26 2.977-2.944 9.305-2.944 9.305s4.56-1.786 6.59-5.545c1.98-3.634.574-13.407.94-17.73.234-2.788-8.967-5.57-8.967-5.57l-4.186-14.06-10.79-13.294-9.196-7.675-11.984-4.29z" fill="#c50001"/><path d="m293.86 85.12s-14.43 10.38-18.755 17.196c-2.866 4.582-5.34 13.445-4.56 19.542.652 5.378 5.003 30.526 5.003 30.526s-8.78-15.452-10.838-21.663c-1.616-4.924-2.085-20.68-.522-25.64 2.892-9.128 7.44-20.568 7.44-20.568l22.833 2.716z" fill="#c40000" fill-opacity=".98"/><path d="m161.464 153.343s27.668 32.86 33.19 35.133c5.602 2.31 13.313 9.544 20.113 9.014 4.142-.34 7.58-8.37 11.124-8.257 7.843.19 20.296 6.552 20.296 6.552s-1.407-24.238-3.387-32.798c-.756-3.295-6.2-11.968-6.305-21.02-.053-4.582.963-18.595 3.986-24.617 5.576-11.134 10.786-10.793 10.786-10.793s-3.96 3.71-8.102 14.884c-2.293 6.174-2.215 16.06-1.667 20.982.86 7.916 8.65 19.43 10.004 22.042 5.367 10.302 11.802 18.066 18.967 22.383 10.082 6.098 22.665 2.84 33.476.758 5.107-.985 3.335-12.498-2.24-19.39-1.172-1.44-7.373-6.97-9.9-13.37-4.194-10.68-3.725-22.8-3.725-22.8s1.51 10.718 8.675 22.724c6.852 11.512 18.002 23.404 21.754 25.866 6.46 4.242 30.142 2.69 37.228 2.69 3.543 0 8.467-2.084 11.28-5.265 5.003-5.68 9.093-18.86 10.708-27.874.808-4.582-17.48-36.055-17.48-36.055s8.466 5.872 14.51 14.658c4.377 6.4 8.337 15.604 8.26 17.952-.236 8.9-5.785 27.382-8.833 35.108-2.423 6.06-9.327 14.43-9.327 14.43s3.1 3.03 11.125-.303c7.685-3.144 16.49-6.855 20.998-16.513 1.302-2.765 9.222-22.496 9.222-22.496s-4.794 26.586-6.67 32.267c-2.578 7.878 5.446 7.99 5.446 7.99s6.096-6.702 13.73-14.77c7.216-7.687 17.215-23.348 17.215-23.348-9.094 41.092-4.86 77.29-39.465 108.828l-187.472-1.477-35.352-50.295-6.59-44.84z" fill="#a00"/><path d="m399.727 126.77 4.256-21.99 17.617 9.738s.37 12.884 2.412 14.284c1.755 1.207 4.747 5.187 4.747 5.187l5.397 4.5s2.605 7.825.764 9.582c-3.02 2.827-4.143-9.108-7.51-6.665-2.59 1.867-.52 29.49-.52 29.49s-7.506 11.653-6.096 8.524c1.784-3.924-4.58-31.334-6.565-35.177-1.41-2.8-6.33-12.34-9.44-13.245-5.61-1.592-4.836 3.574-4.836 3.574z" fill="#c50001"/><path d="m191.346 128.637s-2.97 12.308-2.11 17.497c.755 4.355 3.986 8.862 6.33 11.816 3.935 4.924 15.085 12.31 15.085 12.31s-13.155-3.978-18.236-7.69c-2.97-2.196-8.78-9.77-8.78-9.77l1.746 11.286s-5.106-7.65-7.008-11.286c-1.433-2.765-5.75 11.454-5.907 7.97-.234-4.545 7.764-26.354 9.822-29.762 1.224-2.007 4.917-6.964 4.917-6.964l2.047.89s-5.693 10.633-4.39 8.588c1.51-2.31 6.486-4.885 6.486-4.885" fill="#c50001"/><path d="m319.73 116.67s-1.484 13.14 0 18.14c2.163 7.158 8.468 13.786 13.105 17.65 4.038 3.37 10.213 7.497 14.798 6.55 3.777-.757 9.483-4.77 10.68-10.074 1.278-5.68-1.822-14.58-4.818-18.67-2.058-2.804-8.962-4.015-8.962-4.015s5.47 8.22 5.184 12.612c-.156 2.235-2.006 4.81-3.465 5.53-2.266 1.136-5.783-.38-7.92-2.008-3.36-2.575-8.936-6.78-11.697-10.604-2.814-3.9-6.904-15.11-6.904-15.11" fill="#a00"/><path d="m110.34 323.08a167.74 167.74 0 0 0 3.825 6.908l.603-7.724-3.97-5.173z" fill="none" stroke="#4c4c4c" stroke-width="1.665" transform="matrix(.73525 0 0 1.06886 86.54 -140.64)"/><path d="m299.386 30.505.516-2.408 21.615 1.712c-.064 7.156.302 5.51 1.44 12.775l-18.134-7.896 6.282 23.44c-7.76-2.017-4.004-2.603-11.764-1.057-.05-26.482.01.05.046-26.568z" fill="#decd87"/><path d="m908.06 330.695c-1.662 0-4.118.755-4.118.755l2.19-10-6 2c.922-2.333.485-4.666 0-7l6 2-2-7c2.62.65 5.238.497 7.857 0l-2 7 6-2c-.763 2.334-.675 4.667 0 7l-6-2 1.957 10s-2.225-.755-3.887-.755z" fill="none" stroke="#806600" stroke-width=".908" transform="matrix(2.96268 0 0 3.10915 -2390.094 -964.194)"/><path d="m298.3 15.645v13.02h-12.498v4.08h12.498v15.255h3.796v-15.254h12.5v-4.08h-12.5v-13.02z" fill="#b5961c"/><path d="m301.1 53.92c-74.937 4.867-143.224 62.964-145.834 139.51l1.26 33.76c3.254-95.38 80.297-153.223 144.574-157.725 64.278 4.502 141.322 62.346 144.577 157.725l-5.91-81.974c-8.194-31.69-63.73-86.43-138.666-91.296z" fill="#f4cf31"/><path d="m301.1 53.92c-74.937 4.867-162.635 70.923-143.577 172.34l6.612 1.427c-21.933-96.373 67.42-161.254 136.965-165.757 67.692 4.503 141.322 68.85 140.885 122.94l-4.09-39.654c-18.5-49.237-61.857-86.43-136.794-91.296z" fill="#ffea85"/><path d="m1009.645 497.31c-4.815.35-9.77 1.792-14.507 4.22-4.738 2.43-9.258 5.848-13.205 10.152s-7.32 9.495-9.763 15.47c-2.443 5.978 2.425 12.74 2.2 20.188l-.14-2.18c.835-27.608 18.895-42.048 35.415-43.35 16.52 1.302 36.32 18.046 37.156 45.655l-2.72-25.82c-2.107-6.783-14.355-23.947-34.435-24.336z" fill="none" stroke="#806600" stroke-width=".694" transform="matrix(3.89102 0 0 3.4546 -3627.447 -1664.087)"/><g stroke-width="1.303"><path d="m982.875 513.375c-.68.093-1.487.59-2.156 1.406-1.072 1.305-1.376 2.908-.69 3.595.688.687 2.118.21 3.19-1.094 1.07-1.302 1.373-2.937.686-3.624-.257-.257-.624-.337-1.03-.28zm57.563 0c-.247.03-.454.11-.626.28-.686.688-.382 2.323.688 3.626 1.07 1.305 2.5 1.782 3.188 1.095.686-.687.382-2.29-.688-3.594-.803-.977-1.822-1.493-2.563-1.405z" fill="#ececec" stroke="#808080" stroke-width="1" transform="matrix(3.89102 0 0 3.4546 -3636.042 -1673.518)"/><path d="m188.952 102.583c-.338-.046-.74-.05-1.337.108-1.198.32-2.743 1.22-4.013 2.592-1.27 1.374-1.984 2.903-2.19 4.102-.204 1.2.05 1.77.366 2.05.316.282.98.528 2.19.217 1.208-.31 2.627-1.224 3.89-2.59 1.262-1.365 2.113-2.892 2.31-4.102.196-1.21-.17-1.77-.487-2.05a1.35 1.35 0 0 0 -.728-.325zm224.342 0a1.35 1.35 0 0 0 -.73.324c-.315.28-.683.84-.486 2.05.198 1.21.926 2.738 2.188 4.103 1.263 1.366 2.803 2.28 4.013 2.59 1.21.312 1.872.066 2.188-.215.315-.28.57-.852.365-2.05-.206-1.2-.918-2.73-2.188-4.103s-2.816-2.273-4.013-2.59c-.6-.16-1-.156-1.338-.11z" fill="#fff"/><path d="m1005.063 499.53c-.368.012-.75.075-1.157.19-1.625.452-2.793 1.605-2.625 2.56.17.958 1.626 1.36 3.25.908 1.626-.454 2.794-1.606 2.626-2.563-.126-.718-.99-1.125-2.093-1.094zm21.062 3.25c-.61.015-1.08.246-1.28.69-.402.883.475 2.28 1.936 3.124 1.462.843 2.944.79 3.345-.094.4-.885-.445-2.282-1.906-3.125-.732-.422-1.485-.607-2.095-.594zm-36.406 4.908c-.61.05-1.32.315-2 .812-1.365.993-2.087 2.475-1.595 3.313.492.837 2.012.712 3.375-.282 1.363-.992 2.055-2.474 1.563-3.31-.247-.42-.736-.584-1.344-.533z" fill="#338000" stroke="#668000" stroke-width="1" transform="matrix(3.89102 0 0 3.4546 -3636.042 -1673.518)"/><path d="m210.542 84.4c1.618-1.047 3.33-1.56 4.58-1.6 1.248-.04 1.767.29 1.993.632.227.342.36.988-.174 2.116-.53 1.128-1.706 2.467-3.314 3.507-1.61 1.04-3.32 1.568-4.58 1.6-1.26.03-1.805-.348-2.032-.69-.226-.34-.326-.944.212-2.06.537-1.114 1.697-2.46 3.316-3.506z" fill="#76b54d"/><path d="m1018.625 499.53c-1.102-.03-1.936.377-2.063 1.095-.168.957 1 2.11 2.625 2.563s3.082.05 3.25-.907c.17-.955-1-2.108-2.625-2.56a5.058 5.058 0 0 0 -1.187-.19zm-21.063 3.25c-.61-.012-1.332.173-2.062.595-1.46.843-2.34 2.24-1.938 3.125s1.915.937 3.375.094c1.46-.844 2.308-2.24 1.907-3.125-.2-.444-.67-.675-1.282-.69zm36 4.908c-.408.048-.72.217-.906.53-.492.838.2 2.32 1.563 3.313 1.362.995 2.88 1.12 3.374.283.492-.838-.23-2.32-1.594-3.313-.852-.62-1.757-.893-2.438-.813z" fill="#680000" stroke="#5a0000" stroke-width="1" transform="matrix(3.89102 0 0 3.4546 -3636.042 -1673.518)"/><path d="m326.597 54.65a7.692 7.692 0 0 0 -2.188.324c-1.187.35-1.627.797-1.704 1.188-.078.39.152 1.052 1.094 1.943.944.89 2.583 1.793 4.5 2.267 1.916.475 3.67.362 4.863 0 1.192-.362 1.503-.797 1.58-1.188.08-.39-.038-1.065-.972-1.943-.942-.876-2.57-1.68-4.498-2.158-.964-.24-1.834-.43-2.675-.432zm-81.955 11.12c-1.246-.077-3.008.3-4.742 1.188s-3.102 2.18-3.77 3.238c-.667 1.058-.67 1.582-.486 1.943.185.36.69.884 1.946.97 1.256.088 3.02-.303 4.742-1.186 1.723-.884 3.106-2.168 3.77-3.24.663-1.07.55-1.69.364-2.05-.184-.362-.577-.787-1.824-.864zm142.388 17.057c-1.25-.04-1.72.306-1.946.648s-.41.924.12 2.05c.533 1.13 1.797 2.524 3.405 3.564 1.607 1.04 3.24 1.587 4.498 1.618 1.26.03 1.84-.414 2.067-.756.226-.342.296-.936-.24-2.05-.54-1.116-1.666-2.41-3.285-3.455-1.617-1.047-3.37-1.58-4.62-1.62z" fill="#e90031"/><g fill="#76b54d"><path d="m271.58 54.795c1.927-.477 3.733-.425 4.92-.075 1.185.35 1.54.822 1.618 1.213.077.39-.054 1.036-.997 1.927-.943.89-2.572 1.78-4.488 2.255-1.916.474-3.728.437-4.92.075s-1.554-.886-1.632-1.277c-.077-.39.067-.986 1.01-1.863.943-.878 2.56-1.777 4.49-2.255z"/><path d="m361.54 66.982c-1.735-.89-3.498-1.238-4.745-1.16-1.247.076-1.724.454-1.908.816-.185.36-.24 1.016.425 2.087.664 1.07 1.992 2.293 3.715 3.176 1.723.884 3.49 1.248 4.744 1.16 1.257-.086 1.755-.513 1.94-.875.184-.36.212-.97-.456-2.028-.667-1.058-1.98-2.287-3.715-3.175z"/></g></g><path d="m162.687 276.83-26.847-181.11s7.103 7.596 11.506 10.063c4.996 2.8 11.483 2.692 15.34 7.043 5.125 5.78 3.3 23.38 3.3 23.38s6.144-8.58 11.082-10.982c11.048-5.37 18.025-2.014 21.418 4.873 3.246 6.587 3.212 16.403.325 24.902-2.62 7.71-9.944 11.052-10.66 17.99-.244 2.372-.414 3.914 1.805 5.707 3.578 2.892 10.133 2.634 13.523 5.765 5.6 5.172 1.268 17.297 1.268 17.297s-4.085-6.245-8.875-7.097c-4.657-.828-9.036 5.45-13.1 3.105-4.486-3.2-6.99-6.086-12.256-5.766-4.296.26 1.682 9.636 3.55 13.818 3.887 8.702 19.2 14.82 27.147 16.67 14.078 3.276 24.984 2.65 40.178-.553 12.24-2.58 20.846-7.343 30.152-14.827 11.898-8.167 22.09-32.835 17.73-39.057-1.83-2.61-5.465 1.47-7.608 3.99-3.917 4.607-.865 13.322-6.34 17.74-4.137 3.34-14.1-.508-19.017 1.332-6.105 2.285-10.143 9.757-10.143 9.757s-4.17-8.59-2.113-15.08c1.825-5.755 12.438-6.886 11.832-13.304a22.95 22.95 0 0 0 -.984-4.83c-2.886-9.06-10.8-13.114-15.223-20.8-3.133-5.444-4.515-13.595-1.12-22.713 1.743-4.68 9.128-8.86 13.946-8.87 5.98-.014 11.824 2.428 17.33 4.88 5.292 2.356 14.368 8.87 14.368 8.87s-7.472-16.414-8.68-25.724c-.813-6.285-.032-13.167 2.73-18.814 4.863-9.966 20.555-23.51 21.496-23.51.942 0 16.633 13.544 21.497 23.51 2.762 5.647 3.543 12.53 2.73 18.815-1.208 9.31-8.68 25.724-8.68 25.724s9.076-6.513 14.37-8.87c5.504-2.45 11.346-4.893 17.326-4.88 4.82.012 12.204 4.19 13.947 8.87 3.395 9.12 2.013 17.27-1.12 22.714-4.424 7.686-12.337 11.74-15.223 20.8a22.92 22.92 0 0 0 -.984 4.83c-.606 6.418 10.007 7.55 11.833 13.305 2.057 6.49-2.114 15.08-2.114 15.08s-4.038-7.473-10.143-9.758c-4.916-1.84-14.88 2.01-19.017-1.33-5.475-4.42-2.422-13.135-6.34-17.74-2.143-2.52-5.778-6.602-7.607-3.992-4.36 6.222 5.83 30.89 17.728 39.057 9.306 7.484 17.913 12.247 30.152 14.827 15.194 3.203 26.1 3.83 40.177.553 7.947-1.85 23.26-7.968 27.147-16.67 1.867-4.182 7.846-13.557 3.55-13.818-5.265-.32-7.77 2.566-12.256 5.766-4.065 2.344-8.443-3.933-13.102-3.105-4.79.852-8.875 7.096-8.875 7.096s-4.33-12.126 1.27-17.298c3.39-3.13 9.945-2.873 13.523-5.765 2.22-1.793 2.048-3.335 1.804-5.706-.716-6.938-8.04-10.28-10.66-17.99-2.886-8.5-2.92-18.316.326-24.903 3.393-6.887 10.37-10.243 21.418-4.873 4.94 2.4 11.084 10.982 11.084 10.982s-1.825-17.6 3.3-23.38c3.857-4.35 10.344-4.244 15.34-7.043 4.403-2.467 11.504-10.062 11.504-10.062l-28.2 188.572c-104.462-13.747-179.584-8.234-270.956.498z" fill="#f4cf31"/><path d="m163.59 284.79-27.75-189.07s7.103 7.596 11.506 10.063c4.996 2.8 11.483 2.692 15.34 7.043 5.125 5.78 3.3 23.38 3.3 23.38s6.144-8.58 11.082-10.982c11.048-5.37 18.025-2.014 21.418 4.873 3.246 6.587 3.212 16.403.325 24.902-2.62 7.71-9.944 11.052-10.66 17.99-.244 2.372-.414 3.914 1.805 5.707 3.578 2.892 10.133 2.634 13.523 5.765 5.6 5.172 1.268 17.297 1.268 17.297s-4.085-6.245-8.875-7.097c-4.657-.828-9.036 5.45-13.1 3.105-4.486-3.2-6.99-6.086-12.256-5.766-4.296.26 1.682 9.636 3.55 13.818 3.887 8.702 19.2 14.82 27.147 16.67 7.04 1.638 13.285 2.3 19.67 2.153l6.954 53.644zm215.017-60.147c6.386.148 12.632-.515 19.67-2.153 7.947-1.85 23.26-7.968 27.147-16.67 1.867-4.182 7.846-13.557 3.55-13.818-5.265-.32-7.77 2.566-12.256 5.766-4.065 2.345-8.443-3.933-13.102-3.105-4.79.852-8.875 7.096-8.875 7.096s-4.33-12.126 1.27-17.298c3.39-3.13 9.945-2.873 13.523-5.765 2.22-1.793 2.048-3.335 1.804-5.706-.716-6.938-8.04-10.28-10.66-17.99-2.886-8.5-2.92-18.316.326-24.903 3.393-6.887 10.37-10.243 21.418-4.873 4.94 2.4 11.084 10.982 11.084 10.982s-1.825-17.6 3.3-23.38c3.857-4.35 10.344-4.244 15.34-7.043 4.403-2.467 11.504-10.062 11.504-10.062l-26.845 181.11-60.837-4.71z" fill="#f7de63"/><path d="m398.277 222.49c7.947-1.85 23.26-7.968 27.147-16.67 1.867-4.182 7.846-13.557 3.55-13.818-5.265-.32-7.77 2.566-12.256 5.766-4.065 2.345-8.443-3.933-13.102-3.105-4.79.852-8.875 7.096-8.875 7.096s-4.33-12.126 1.27-17.298c3.39-3.13 9.945-2.873 13.523-5.765 2.22-1.793 2.048-3.335 1.804-5.706-.716-6.938-8.04-10.28-10.66-17.99-2.886-8.5-2.92-18.316.326-24.903 3.393-6.887 10.37-10.243 21.418-4.873 4.94 2.4 11.084 10.982 11.084 10.982s-1.825-17.6 3.3-23.38c3.857-4.35 10.344-4.244 15.34-7.043 4.403-2.467 11.504-10.062 11.504-10.062l-27.75 188.075-42.04-9.75zm-235.59 54.34-26.847-181.11s7.103 7.596 11.506 10.063c4.996 2.8 11.483 2.692 15.34 7.043 5.125 5.78 3.3 23.38 3.3 23.38s6.144-8.58 11.082-10.982c11.048-5.37 18.025-2.014 21.418 4.873 3.246 6.587 3.212 16.403.325 24.902-2.62 7.71-9.944 11.052-10.66 17.99-.244 2.372-.414 3.914 1.805 5.707 3.578 2.892 10.133 2.634 13.523 5.765 5.6 5.172 1.268 17.297 1.268 17.297s-4.085-6.245-8.875-7.097c-4.657-.828-9.036 5.45-13.1 3.105-4.486-3.2-6.99-6.086-12.256-5.766-4.296.26 1.682 9.636 3.55 13.818 3.887 8.702 19.2 14.82 27.147 16.67l4.602 57.936-42.223 3.866z" fill="#f4cf31"/><path d="m436.803 112.826c2.125-5.51 10.345-4.244 15.34-7.043 4.404-2.467 11.505-10.062 11.505-10.062l-28.2 188.572-16.323-3.22 11.592-88.24 2.602-57.66-.07-13.134 3.554-9.212zm-272.763 172.96-28.2-190.066s7.103 7.596 11.506 10.063c4.996 2.8 11.483 2.692 15.34 7.043l3.918 8.644-1.283 13.668 3.074 57.782 11.25 90.14z" fill="#d4aa00"/><path d="m274.272 271.01 50.255-.11 3.52-63.79c-11.897-8.167-22.087-32.835-17.728-39.057 1.828-2.61 5.463 1.47 7.606 3.99 3.917 4.607.865 13.322 7.043 18.544l4.79-70.433c-5.295 2.357-14.37 8.87-14.37 8.87s7.472-16.412 8.678-25.723c.815-6.285.033-13.167-2.728-18.813-4.864-9.967-20.555-23.51-21.496-23.51-.942 0-16.633 13.543-21.497 23.51-2.76 5.646-3.543 12.528-2.728 18.814 1.206 9.312 8.677 25.724 8.677 25.724l-14.566-8.737 5.693 69.498c5.474-4.42 2.422-13.135 6.34-17.74 2.142-2.52 5.778-6.602 7.606-3.992 4.36 6.222-5.832 30.89-17.73 39.057z" fill="#f7de63"/><path d="m299.745 68.53s-14.76 13.792-18.05 23.068c-1.347 3.792-.692 8.16 0 12.14 2.253 12.978 13.88 38.85 13.88 38.85s-23.725-16.912-37.596-19.425c-2.858-.517-8.087-1.208-10.413.607-2.644 2.063-3.73 5.664-4.05 9.106-.34 3.675.175 7.617 1.736 10.926 3.873 8.21 13.56 11.514 16.775 20.032 1.49 3.95 3.19 9.072 1.157 12.747-.78 1.412-2.833 1.414-4.05 2.43-2.668 2.23-6.94 7.89-6.94 7.89s4.085-2.517 6.362-3.034c3.392-.77 7.507 1.993 10.412 0 5.635-3.87 4.323-15.626 8.097-19.425 3.773-3.798 7.004-4.514 10.41-4.248 3.408.265 5.856 1.144 8.1 4.856 2.242 3.71 1.14 10.844.085 16.53-1.056 5.687-6.59 18.084-6.59 18.084-3.742 7.85-9.76 12.877-16.604 17.925-9.416 6.946-20.83 10.9-32.098 13.358-11.205 2.444-23.01 3.044-34.313 1.162-9.106-1.517-16.6-3.3-24.276-8.66-5.216-3.642-11.108-7.89-14.513-13.41-2.29-3.713-4.627-10.108-4.93-14.52-.207-2.997-.058-6.88 2.213-8.71 2.926-2.36 7.522-1.07 11.07 0 3.345 1.006 5.397 5.375 8.854 5.806 2.896.362 5.39-2.687 8.3-2.904 2.058-.154 6.09 1.16 6.09 1.16s-1.41-3.206-2.77-4.064c-2.39-1.51-5.827.198-8.3-1.162-2.43-1.336-4.61-3.68-5.534-6.39-1.246-3.648-.605-7.933.553-11.614.835-2.652 2.777-4.78 4.428-6.97 2.35-3.115 4.83-4.75 6.22-8.444 1.217-3.242 1.808-7.25 1.53-10.722-.94-11.635-7.382-17.003-17.412-10.05-6.223 4.316-17.412 19.648-17.412 19.648s2.35-23.1-1.405-32.737c-.544-1.4-1.27-1.65-2.51-2.415-2.59-1.596-5.972-.864-8.856-1.743-3.318-1.01-9.626-6.972-9.626-6.972l-2.143-11.514s7.102 7.596 11.505 10.063c4.996 2.8 11.483 2.692 15.34 7.043 5.125 5.78 3.3 23.38 3.3 23.38s6.144-8.58 11.082-10.98c11.048-5.372 18.025-2.016 21.418 4.87 3.246 6.588 3.212 16.404.325 24.903-2.62 7.71-9.945 11.052-10.66 17.99-.245 2.372-.415 3.914 1.804 5.707 3.577 2.892 10.132 2.634 13.522 5.766 5.6 5.17 1.268 17.296 1.268 17.296s-4.085-6.245-8.875-7.097c-4.658-.828-9.16 5.66-13.1 3.105-4.61-2.99-6.992-6.085-12.257-5.766-4.296.26 1.682 9.636 3.55 13.818 3.887 8.702 19.2 14.82 27.147 16.67 14.076 3.276 24.983 2.65 40.177-.553 12.24-2.58 20.57-7.753 30.152-14.827 11.62-8.578 20.823-34.64 17.73-39.057-3.095-4.416-4.578.428-7.608 3.99-3.03 3.564-1.534 13.862-6.34 17.742s-14.1-.51-19.017 1.33c-6.106 2.285-10.144 9.757-10.144 9.757s-4.17-8.59-2.113-15.08c1.826-5.755 12.44-6.885 11.833-13.304a22.947 22.947 0 0 0 -.985-4.83c-2.884-9.06-10.797-13.114-15.22-20.8-3.134-5.444-4.516-13.595-1.12-22.712 1.742-4.68 9.127-8.86 13.945-8.87 5.98-.014 11.823 2.427 17.327 4.878 5.294 2.357 14.37 8.87 14.37 8.87s-7.472-16.412-8.68-25.723c-.814-6.285-.032-13.166 2.73-18.813 4.866-9.966 20.554-23.51 21.712-23.51 1.157 0 16.845 13.544 21.712 23.51 2.758 5.647 3.543 12.528 2.728 18.814-1.206 9.312-8.678 25.724-8.678 25.724s9.076-6.513 14.37-8.87c5.504-2.45 11.346-4.892 17.326-4.88 4.82.012 12.203 4.19 13.947 8.872 3.394 9.117 2.012 17.268-1.122 22.712-4.423 7.686-12.336 11.74-15.222 20.8a22.94 22.94 0 0 0 -.985 4.83c-.604 6.42 10.01 7.55 11.835 13.305 2.058 6.49-2.114 15.08-2.114 15.08s-4.036-7.473-10.14-9.758c-4.917-1.84-14.213 2.55-19.02-1.33-4.805-3.88-3.308-14.178-6.338-17.74-3.03-3.564-4.513-8.408-7.607-3.992-3.095 4.416 6.108 30.48 17.728 39.057 9.584 7.074 17.913 12.247 30.153 14.827 15.194 3.203 26.1 3.83 40.176.554 7.948-1.85 23.26-7.968 27.148-16.67 1.867-4.182 7.846-13.557 3.55-13.818-5.265-.32-7.647 2.777-12.256 5.766-3.94 2.555-8.443-3.933-13.102-3.105-4.79.852-8.875 7.096-8.875 7.096s-4.332-12.126 1.268-17.297c3.39-3.132 9.945-2.874 13.524-5.766 2.218-1.793 2.048-3.335 1.803-5.706-.716-6.938-8.04-10.28-10.66-17.99-2.887-8.5-2.92-18.316.326-24.903 3.392-6.887 10.37-10.243 21.417-4.872 4.938 2.4 11.083 10.98 11.083 10.98s-1.825-17.6 3.3-23.38c3.857-4.35 10.344-4.243 15.34-7.042 4.403-2.467 11.504-10.062 11.504-10.062l-2.142 11.515s-6.31 5.962-9.626 6.972c-2.885.88-6.265.147-8.855 1.743-1.242.765-1.966 1.015-2.51 2.415-3.757 9.637-1.407 32.738-1.407 32.738s-11.188-15.333-17.41-19.648c-10.03-6.954-16.474-1.586-17.412 10.05-.28 3.47.314 7.48 1.53 10.72 1.388 3.696 3.87 5.33 6.22 8.445 1.65 2.19 3.592 4.318 4.426 6.97 1.16 3.68 1.8 7.966.554 11.615-.925 2.71-3.106 5.053-5.534 6.39-2.473 1.36-5.91-.35-8.302 1.16-1.36.86-2.767 4.066-2.767 4.066s4.03-1.314 6.088-1.16c2.91.216 5.405 3.265 8.3 2.903 3.457-.43 5.51-4.8 8.856-5.807 3.547-1.068 8.144-2.36 11.07 0 2.27 1.83 2.42 5.714 2.213 8.71-.303 4.413-2.64 10.808-4.93 14.52-3.405 5.522-9.297 9.77-14.515 13.412-7.676 5.36-15.17 7.142-24.276 8.66-11.302 1.88-23.108 1.28-34.312-1.163-11.27-2.457-22.682-6.412-32.1-13.358-6.842-5.048-12.86-10.074-16.602-17.925 0 0-5.535-12.397-6.59-18.084-1.057-5.686-2.158-12.82.085-16.53 2.243-3.712 4.69-4.59 8.098-4.856s6.64.45 10.413 4.25c3.773 3.798 2.462 15.555 8.098 19.424 2.905 1.993 7.02-.77 10.412 0 2.277.517 6.363 3.035 6.363 3.035s-4.272-5.66-6.94-7.89c-1.217-1.016-3.27-1.018-4.05-2.43-2.032-3.674-.334-8.795 1.157-12.746 3.214-8.518 12.9-11.82 16.774-20.032 1.56-3.31 2.076-7.25 1.736-10.926-.32-3.442-1.405-7.043-4.05-9.106-2.326-1.815-7.555-1.124-10.41-.607-13.873 2.513-37.6 19.425-37.6 19.425s11.63-25.872 13.883-38.85c.69-3.98 1.346-8.348 0-12.14-3.292-9.276-18.05-23.067-18.05-23.067z" fill="#ffea85"/><path d="m221.346 233.728.023-9.092c.002-1.72.87-.064 2.28-.482 4.005-1.185 12.39-1.052 17.914-2.217 12.24-2.58 20.57-7.753 30.153-14.827 11.62-8.578 20.823-34.64 17.73-39.057-3.095-4.416-4.578.428-7.608 3.99-3.03 3.564-1.535 13.862-6.34 17.742-4.807 3.88-14.102-.51-19.018 1.33-6.105 2.285-10.143 9.757-10.143 9.757s-4.173-8.59-2.114-15.08c1.826-5.755 12.438-6.885 11.833-13.304a22.947 22.947 0 0 0 -.986-4.83c-2.885-9.06-10.798-13.114-15.222-20.8-3.133-5.444-4.516-13.595-1.12-22.712 1.743-4.68 9.128-8.86 13.946-8.87 5.98-.014 11.822 2.427 17.327 4.878 5.293 2.357 14.37 8.87 14.37 8.87s-7.472-16.412-8.68-25.723c-.814-6.285-.032-13.166 2.73-18.813 4.866-9.966 20.554-23.51 21.712-23.51 1.157 0 16.845 13.544 21.712 23.51 2.76 5.647 3.542 12.528 2.727 18.814-1.207 9.312-8.678 25.724-8.678 25.724s9.074-6.513 14.368-8.87c5.505-2.45 11.347-4.892 17.327-4.88 4.82.012 12.203 4.19 13.946 8.872 3.397 9.117 2.014 17.268-1.12 22.712-4.423 7.686-12.336 11.74-15.22 20.8a22.9 22.9 0 0 0 -.986 4.83c-.605 6.42 10.008 7.55 11.833 13.305 2.06 6.49-2.113 15.08-2.113 15.08s-4.038-7.473-10.142-9.758c-4.917-1.84-14.212 2.55-19.018-1.33s-3.31-14.178-6.34-17.74c-3.03-3.564-4.513-8.408-7.607-3.992s6.108 30.48 17.73 39.057c9.582 7.074 17.912 12.247 30.152 14.827 7.17 1.512 13.388 2.45 19.434 2.674l-.635 9.103c-6.07-.71-12.117-1.485-17.997-2.768-11.27-2.457-22.682-6.412-32.1-13.358-6.843-5.048-12.86-10.074-16.602-17.925 0 0-5.534-12.397-6.59-18.084-1.056-5.686-2.157-12.82.085-16.53 2.243-3.712 4.69-4.59 8.098-4.856 3.407-.266 6.64.45 10.412 4.25 3.774 3.798 2.462 15.555 8.098 19.424 2.905 1.993 7.02-.77 10.412 0 2.277.517 6.362 3.035 6.362 3.035s-4.272-5.66-6.94-7.89c-1.217-1.016-3.27-1.018-4.05-2.43-2.032-3.674-.334-8.795 1.157-12.746 3.215-8.518 12.902-11.82 16.775-20.032 1.56-3.31 2.075-7.25 1.735-10.926-.32-3.442-1.405-7.043-4.05-9.106-2.326-1.815-7.555-1.124-10.412-.607-13.87 2.513-37.598 19.425-37.598 19.425s11.63-25.872 13.883-38.85c.69-3.98 1.346-8.348 0-12.14-3.292-9.276-18.05-23.067-18.05-23.067s-14.76 13.792-18.05 23.068c-1.347 3.792-.693 8.16 0 12.14 2.252 12.978 13.88 38.85 13.88 38.85s-23.726-16.912-37.597-19.425c-2.855-.517-8.084-1.208-10.41.607-2.644 2.063-3.73 5.664-4.05 9.106-.34 3.675.175 7.617 1.736 10.926 3.873 8.21 13.56 11.514 16.774 20.032 1.49 3.95 3.19 9.072 1.157 12.747-.78 1.412-2.832 1.414-4.05 2.43-2.668 2.23-6.94 7.89-6.94 7.89s4.086-2.517 6.363-3.034c3.392-.77 7.507 1.993 10.41 0 5.638-3.87 4.326-15.626 8.1-19.425 3.773-3.798 7.004-4.514 10.41-4.248 3.408.265 5.856 1.144 8.1 4.856 2.242 3.71 1.14 10.844.085 16.53-1.056 5.687-6.59 18.084-6.59 18.084-3.742 7.85-9.76 12.877-16.604 17.925-9.416 6.946-20.828 10.9-32.098 13.358-6.348 1.385-12.883 2.698-19.416 2.783z" fill="#ffea85"/><path d="m162.687 276.83-26.847-181.11s7.103 7.596 11.506 10.063c4.996 2.8 11.483 2.692 15.34 7.043 5.125 5.78 3.3 23.38 3.3 23.38s6.144-8.58 11.082-10.982c11.048-5.37 18.025-2.014 21.418 4.873 3.246 6.587 3.212 16.403.325 24.902-2.62 7.71-9.944 11.052-10.66 17.99-.244 2.372-.414 3.914 1.805 5.707 3.578 2.892 10.133 2.634 13.523 5.765 5.6 5.172 1.268 17.297 1.268 17.297s-4.085-6.245-8.875-7.097c-4.657-.828-9.036 5.45-13.1 3.105-4.486-3.2-6.99-6.086-12.256-5.766-4.296.26 1.682 9.636 3.55 13.818 3.887 8.702 19.2 14.82 27.147 16.67 14.078 3.276 24.984 2.65 40.178-.553 12.24-2.58 20.846-7.343 30.152-14.827 11.898-8.167 22.09-32.835 17.73-39.057-1.83-2.61-5.465 1.47-7.608 3.99-3.917 4.607-.865 13.322-6.34 17.742-4.137 3.34-14.1-.51-19.017 1.33-6.105 2.285-10.143 9.757-10.143 9.757s-4.17-8.59-2.113-15.08c1.825-5.755 12.438-6.886 11.832-13.304a22.95 22.95 0 0 0 -.984-4.83c-2.886-9.06-10.8-13.114-15.223-20.8-3.133-5.444-4.515-13.595-1.12-22.712 1.743-4.68 9.128-8.86 13.946-8.87 5.98-.014 11.824 2.427 17.33 4.878 5.292 2.357 14.368 8.87 14.368 8.87s-7.472-16.412-8.68-25.723c-.813-6.285-.032-13.167 2.73-18.814 4.863-9.966 20.555-23.51 21.496-23.51.942 0 16.633 13.544 21.497 23.51 2.762 5.647 3.543 12.53 2.73 18.815-1.208 9.312-8.68 25.724-8.68 25.724s9.076-6.513 14.37-8.87c5.504-2.45 11.346-4.892 17.326-4.88 4.82.012 12.204 4.19 13.947 8.872 3.395 9.117 2.013 17.268-1.12 22.712-4.424 7.686-12.337 11.74-15.223 20.8a22.92 22.92 0 0 0 -.984 4.83c-.606 6.418 10.007 7.55 11.833 13.305 2.057 6.49-2.114 15.08-2.114 15.08s-4.038-7.473-10.143-9.758c-4.916-1.84-14.88 2.01-19.017-1.33-5.475-4.42-2.422-13.135-6.34-17.74-2.143-2.52-5.778-6.602-7.607-3.992-4.36 6.222 5.83 30.89 17.728 39.057 9.306 7.484 17.913 12.247 30.152 14.827 15.194 3.203 26.1 3.83 40.177.553 7.947-1.85 23.26-7.968 27.147-16.67 1.867-4.182 7.846-13.557 3.55-13.818-5.265-.32-7.77 2.566-12.256 5.766-4.065 2.345-8.443-3.933-13.102-3.105-4.79.852-8.875 7.096-8.875 7.096s-4.33-12.126 1.27-17.298c3.39-3.13 9.945-2.873 13.523-5.765 2.22-1.793 2.048-3.335 1.804-5.706-.716-6.938-8.04-10.28-10.66-17.99-2.886-8.5-2.92-18.316.326-24.903 3.393-6.887 10.37-10.243 21.418-4.873 4.94 2.4 11.084 10.982 11.084 10.982s-1.825-17.6 3.3-23.38c3.857-4.35 10.344-4.244 15.34-7.043 4.403-2.467 11.504-10.062 11.504-10.062l-27.296 188.572c-46.63-4.167-89.646-8.515-136.275-8.578-44.744-.06-91.744 4.48-136.488 9.076z" fill="none" stroke="#806600" stroke-width="2.756"/><path d="m1011.72 550.188-6.783 1.906v5.406l7 2.063 6.844-2.063v-5.406zm-18.19 4.843c-.108-.01-.202.013-.31.032-.877.153-1.395 1.218-1.158 2.407.238 1.187 1.124 2.026 2 1.874.877-.153 1.395-1.218 1.157-2.407-.21-1.04-.926-1.83-1.69-1.906z" fill="#2c5aa0" stroke="#00006c" transform="matrix(3.29186 0 0 3.4546 -3031.14 -1673.518)"/><path d="m298.086 233.475-15.244 4.702.032 7.498 12.846 3.588 12.547-1.72.125-9.985zm-59.788 12.69c-.34.063-.83.29-1.234 1.08s-.65 1.986-.412 3.24c.24 1.25.876 2.32 1.543 2.913.668.594 1.202.603 1.543.54.34-.062.82-.286 1.235-1.08.415-.793.65-1.993.41-3.238-.236-1.245-.863-2.213-1.542-2.807-.678-.593-1.2-.71-1.542-.648z" fill="#80b3ff"/><path d="m979.094 552.438c-.34.018-.68.08-1.032.156-2.81.598-4.764 2.856-4.375 5.03.39 2.176 2.972 3.443 5.782 2.845 2.81-.6 4.794-2.857 4.405-5.033-.34-1.903-2.397-3.126-4.78-3zm66.718.375-5.28.406v5.56l5.28 1.47 4.25-1.063v-4.25z" fill="#2c5aa0" stroke="#00006c" transform="matrix(3.29186 0 0 3.4546 -3031.14 -1673.518)"/><path d="m410.298 242.063-10.08.54v3.67l9.67 1.836zm-222.818 1.403c-.626.035-1.188.152-1.852.324-2.654.69-4.77 2.36-5.863 3.887s-1.107 2.384-1.03 2.914c.08.532.293 1.27 1.75 2.16s3.852 1.44 6.48.756c2.63-.682 4.843-2.31 5.967-3.886s1.1-2.538 1.03-3.023c-.072-.484-.274-1.174-1.75-2.05-1.107-.66-2.853-1.18-4.732-1.08z" fill="#80b3ff"/><g id="b" stroke-width="1.063"><path d="m1149.565 547.805c-1.063.046-1.86 1-1.812 2.12l.218 5.367c.05 1.117.938 1.99 2 1.943 1.065-.047 1.894-1.002 1.845-2.12l-.25-5.368c-.05-1.117-.937-1.99-2-1.942zm-20 17.66a2.098 2.098 0 0 0 -.656.034c-1.686.354-2.677 2.88-2.22 5.65s2.19 4.735 3.875 4.38c1.685-.356 2.676-2.918 2.22-5.687-.4-2.423-1.752-4.205-3.22-4.38z" fill="#870000" stroke="#5a0000" transform="matrix(3.29186 0 0 3.0567 -3562.95 -1488.81)"/><path d="m221.218 189.293c-.995.058-2.004.452-2.675 1.08-.92.86-.894 2.25-1.03 3.454-.43 3.815.824 11.443.824 11.443l2.572 2.052c-.116-6.94-.378-14.04 2.57-16.842 0 0-.546-1.085-1.234-1.187-.312-.046-.697-.02-1.028 0zm-68.615 55.49c-.656.128-1.487.64-2.263 2.266-.777 1.626-1.18 4.004-.72 6.585.458 2.58 1.596 4.822 2.88 6.045 1.283 1.224 2.224 1.316 2.88 1.188.656-.13 1.672-.632 2.47-2.267.797-1.634 1.073-4.127.616-6.692-.456-2.566-1.574-4.715-2.88-5.938s-2.327-1.316-2.983-1.188z" fill="#e90031"/><path d="m1148.272 559.32c.74-1.355 1.528-1.377 2.367-.09l.728 19.08c-.77.51-1.54 1.05-2.367.09z" fill="#f4cf31" stroke="#806600" stroke-width=".868" transform="matrix(3.29186 0 0 3.0567 -3561.97 -1489.217)"/></g><g stroke-width=".866"><path d="m1011.844 508.063c-1.715 0-3.094 2.007-3.094 4.5 0 2.492 1.58 5.11 3.094 6.312 1.433-1.043 3.125-3.82 3.125-6.313 0-2.492-1.412-4.5-3.126-4.5zm-11.594 13.625c-1.91 0-3.47 1.567-3.47 3.5 0 1.932 1.56 3.5 3.47 3.5s3.438-1.568 3.438-3.5c0-1.933-1.528-3.5-3.438-3.5zm23.22 0c-1.91 0-3.47 1.567-3.47 3.5 0 1.932 1.56 3.5 3.47 3.5s3.467-1.568 3.467-3.5c0-1.933-1.558-3.5-3.468-3.5zm-11.626 3.875c-2.493 0-4.5 1.38-4.5 3.093 0 1.715 2.007 3.125 4.5 3.125 2.492 0 4.53-1.41 4.53-3.124s-2.038-3.093-4.53-3.093zm0 17.343c-2.104 0-3.813 1.06-3.813 2.375 0 1.316 1.71 2.376 3.814 2.376s3.812-1.06 3.812-2.375c0-1.314-1.708-2.374-3.812-2.374zm-15.125 8.157c-1.207.03-2.153.624-2.126 1.343.018.488.482.92 1.156 1.125-.792.315-1.375 1.322-1.375 2.533 0 1.46.833 2.656 1.875 2.656s1.906-1.197 1.906-2.658c0-1.075-.467-1.992-1.125-2.406 1.1-.094 1.932-.67 1.908-1.343-.027-.72-1.013-1.28-2.22-1.25zm30.217.093c-.846 0-1.53.694-1.53 1.563 0 .813.6 1.513 1.374 1.592-.55.06-1.038.32-1.374.72-.106-.89-.54-1.536-1.156-1.532-.78.005-1.53 1.048-1.656 2.312-.126 1.265.406 2.286 1.187 2.282.49-.003.968-.42 1.283-1.032.3.767 1.05 1.313 1.937 1.313.655 0 1.213-.317 1.594-.78.066.6.353 1.052.812 1.155.763.17 1.72-.67 2.125-1.875.408-1.204.107-2.33-.655-2.5-.652-.146-1.437.448-1.906 1.375-.233-.773-.883-1.374-1.72-1.47.7-.145 1.22-.802 1.22-1.56 0-.87-.686-1.564-1.532-1.564zm.063 7.22a2.203 2.203 0 0 0 -.376-.032c-1.063 0-1.937.725-1.937 1.594 0 .868.874 1.562 1.938 1.562 1.063 0 1.906-.694 1.906-1.562 0-.76-.653-1.416-1.53-1.563zm-26.813-5.188c-.698.073-1.457 1-1.813 2.25-.406 1.427-.106 2.735.657 2.937s1.688-.79 2.094-2.22c.407-1.426.138-2.734-.625-2.936a.915.915 0 0 0 -.313-.032zm-2.563 5.25c-.846 0-1.53.725-1.53 1.593 0 .87.684 1.564 1.53 1.564.847 0 1.532-.694 1.532-1.563 0-.867-.685-1.592-1.532-1.592z" fill="#680000" stroke="#5a0000" stroke-width="1" transform="matrix(3.29186 0 0 3.4546 -3031.14 -1673.518)"/><path d="m298.17 86.066c-.588.164-1.375.64-2.16 1.727-1.05 1.45-1.853 3.744-1.853 6.37s.804 5.027 1.852 6.477c1.046 1.45 2.006 1.727 2.673 1.727s1.708-.273 2.778-1.727 1.852-3.867 1.852-6.477-.78-4.916-1.85-6.37c-1.07-1.453-2.112-1.727-2.78-1.727-.167 0-.318-.055-.513 0zm-38.783 48.148c-1.918 0-3.674.92-4.732 2.16-1.06 1.24-1.235 2.34-1.235 3.13s.173 1.974 1.235 3.24c1.06 1.264 2.826 2.158 4.732 2.158a6.06 6.06 0 0 0 4.63-2.16c1.06-1.264 1.336-2.45 1.336-3.238 0-.79-.28-1.89-1.337-3.13-1.06-1.24-2.712-2.16-4.63-2.16zm76.433 0c-1.918 0-3.674.92-4.732 2.16-1.06 1.24-1.235 2.34-1.235 3.13s.175 1.974 1.235 3.24c1.06 1.264 2.826 2.158 4.732 2.158a6.06 6.06 0 0 0 4.63-2.16c1.06-1.264 1.336-2.45 1.336-3.238 0-.79-.28-1.89-1.337-3.13-1.06-1.24-2.713-2.16-4.63-2.16zm-38.886 12.74c-2.5 0-4.687.843-6.07 1.943-1.38 1.1-1.748 2.106-1.748 2.806s.364 1.793 1.75 2.915c1.384 1.123 3.582 1.943 6.068 1.943 2.487 0 4.684-.82 6.07-1.942s1.75-2.214 1.75-2.915c0-.7-.368-1.707-1.75-2.806-1.382-1.1-3.567-1.944-6.07-1.944zm.412 58.836c-2.112 0-3.977.668-5.144 1.51-1.166.845-1.44 1.515-1.44 2.052s.27 1.406 1.44 2.267c1.17.86 3.045 1.403 5.144 1.403 2.1 0 3.974-.542 5.144-1.404s1.44-1.73 1.44-2.268c0-.537-.274-1.207-1.44-2.05-1.167-.844-3.03-1.512-5.144-1.512zm51.538 26.233c-.33 0-.82.143-1.337.648-.518.506-.926 1.353-.926 2.268s.41 1.654.927 2.16c.517.504 1.008.647 1.337.647.33 0 .81-.142 1.338-.648a2.97 2.97 0 0 0 .926-2.16c0-.908-.398-1.76-.926-2.266-.53-.506-1.008-.647-1.338-.647zm-100.3.216a5.173 5.173 0 0 0 -2.88.97c-.65.48-.832.786-.822 1.08s.24.735.926 1.188c.687.453 1.78.788 2.983.755 1.205-.03 2.227-.374 2.88-.863.655-.49.835-.894.824-1.188-.01-.294-.24-.744-.926-1.187-.684-.444-1.772-.79-2.983-.756zm12.55 7.772c-.295-.083-.747.055-1.44.756-.69.7-1.34 1.95-1.748 3.454s-.446 2.926-.205 3.887c.24.96.63 1.21.927 1.294.296.083.738.053 1.44-.648.702-.7 1.446-1.96 1.85-3.454.407-1.495.457-2.922.206-3.887-.25-.965-.733-1.32-1.03-1.403zm78.697.864c-.3 0-.686.125-1.233.863s-1.108 2.013-1.234 3.346c-.126 1.332.21 2.506.617 3.24.408.73.725.864 1.028.862s.78-.23 1.338-.97c.557-.742 1.11-1.916 1.234-3.24.125-1.324-.2-2.504-.617-3.24-.417-.733-.827-.864-1.132-.862zm-92.068.107c-.405 0-1.01.122-1.646.972-.637.85-1.13 2.24-1.13 3.778 0 1.54.493 2.93 1.13 3.78s1.24 1.078 1.646 1.078.996-.226 1.646-1.078 1.132-2.25 1.132-3.78c0-1.528-.48-2.925-1.132-3.777-.65-.852-1.24-.972-1.646-.972zm101.122 2.375c-.447 0-1.047.1-1.75.756-.7.656-1.233 1.727-1.233 2.915 0 1.187.534 2.258 1.235 2.914.702.655 1.302.755 1.75.755.446 0 1.134-.1 1.85-.756.717-.658 1.236-1.735 1.236-2.915s-.518-2.26-1.234-2.916c-.717-.657-1.405-.756-1.852-.756zm11.728.324c-.237.083-.478.244-.823.54-.693.59-1.445 1.646-1.853 2.915-.41 1.27-.446 2.536-.204 3.346.24.81.63 1.01.925 1.08.297.07.74.05 1.44-.54.702-.59 1.446-1.654 1.852-2.915.406-1.26.455-2.532.204-3.346-.25-.814-.63-1.01-.926-1.08-.148-.035-.38-.083-.617 0zm-12.962 13.17c-.414 0-.893.143-1.543.648-.65.506-1.235 1.353-1.235 2.268 0 .914.585 1.762 1.235 2.267s1.13.54 1.543.54c.414 0 1.085-.035 1.75-.54a2.91 2.91 0 0 0 1.13-2.267c0-.91-.468-1.76-1.13-2.268-.665-.506-1.336-.647-1.75-.647zm-95.36.433c-.33 0-.718.142-1.236.647a3 3 0 0 0 -.926 2.16c0 .914.41 1.76.926 2.267.518.504.905.646 1.235.646.328 0 .91-.14 1.44-.647.527-.508.822-1.36.822-2.27 0-.908-.295-1.65-.823-2.158-.53-.506-1.112-.647-1.44-.647z" fill="#e90031"/></g><g id="c"><g stroke="#006680" stroke-width=".805"><path d="m963.188 521.72a1.534 1.534 0 0 0 -.407.03c-1.08.188-1.73 1.532-1.436 3 .293 1.468 1.418 2.5 2.5 2.312s1.73-1.532 1.437-3c-.256-1.284-1.15-2.25-2.092-2.343zm8.687 4.06c-1.393.23-2.19 1.87-1.813 3.658.378 1.786 1.795 3.04 3.188 2.812 1.393-.23 2.222-1.87 1.844-3.656-.378-1.787-1.827-3.042-3.22-2.813zm-7.47 3.158c-1.684.314-2.675 2.58-2.217 5.03.457 2.45 2.19 4.16 3.875 3.845s2.676-2.55 2.218-5c-.456-2.45-2.188-4.19-3.874-3.875zm1.69 12.625c-1.083.188-1.732 1.532-1.44 3 .295 1.467 1.42 2.5 2.5 2.312 1.083-.188 1.732-1.5 1.44-2.97-.295-1.466-1.42-2.53-2.5-2.342z" fill="#2c5aa0" stroke="#00006c" stroke-width="1" transform="matrix(3.29186 0 0 3.4546 -3031.14 -1673.518)"/><path d="m962.72 522.53c-.13.024-.287.094-.44.376-.15.282-.213.71-.124 1.157.09.447.312.82.563 1.03.25.213.433.242.56.22.13-.023.315-.092.47-.375.155-.284.214-.712.125-1.157-.09-.444-.308-.818-.563-1.03-.254-.212-.465-.24-.593-.22zm9.092 4.22c-.164.027-.367.125-.562.47-.195.342-.303.86-.188 1.405.116.545.428.992.75 1.25.323.258.555.308.72.28.164-.026.393-.153.593-.5.2-.344.302-.863.188-1.405a2.207 2.207 0 0 0 -.75-1.25c-.328-.258-.586-.277-.75-.25zm-7.312 3.5c-.064-.004-.106.022-.156.03-.2.038-.452.187-.688.657s-.358 1.16-.218 1.907.485 1.364.875 1.718c.39.355.707.413.906.375.198-.037.475-.182.717-.656.243-.472.358-1.194.22-1.936-.14-.743-.51-1.365-.907-1.72-.297-.265-.558-.362-.75-.374zm1.53 12.125c-.127.022-.285.093-.436.375-.152.282-.215.71-.125 1.156.088.448.31.82.56 1.032.252.212.436.24.564.218s.313-.122.468-.406c.156-.284.214-.71.125-1.156-.09-.445-.307-.788-.562-1s-.466-.24-.594-.22z" fill="#80b3ff" stroke="none" transform="matrix(3.29186 0 0 3.4546 -3031.14 -1673.518)"/></g><g stroke="#006680" stroke-width="1.298"><path d="m1177.975 553.607a3.81 2.38 0 1 1 -7.62 0 3.81 2.38 0 1 1 7.62 0z" fill="#ececec" stroke="#808080" transform="matrix(.45923 2.4095 2.70783 -.49494 -1905.865 -2455.12)"/><path d="m1174.156 552.313c-.87 0-1.644.232-2.125.53-.48.3-.593.56-.593.75s.112.477.594.782c.483.305 1.26.53 2.126.53s1.643-.225 2.125-.53c.483-.305.595-.59.595-.78 0-.192-.113-.452-.594-.75-.48-.3-1.253-.533-2.124-.533z" fill="#fff" stroke="none" transform="matrix(.33834 1.77524 2.20972 -.4039 -1489.146 -1762.39)"/></g></g><g stroke="#b3b3b3" stroke-width="1.148"><path d="m1177.975 553.607a3.81 2.38 0 1 1 -7.62 0 3.81 2.38 0 1 1 7.62 0z" fill="#ececec" stroke="#808080" transform="matrix(2.26615 0 0 3.80624 -2361.087 -2045.324)"/><path d="m1174.156 552.313c-.87 0-1.644.232-2.125.53-.48.3-.593.56-.593.75s.112.477.594.782c.483.305 1.26.53 2.126.53s1.643-.225 2.125-.53c.483-.305.595-.59.595-.78 0-.192-.113-.452-.594-.75-.48-.3-1.253-.533-2.124-.533z" fill="#fff" stroke="none" transform="matrix(1.6696 0 0 3.5104 -1662.283 -1882.984)"/></g><g transform="matrix(-1 0 0 1 599.49 0)"><use height="1636.81" width="1303.076" xlink:href="#c"/><use fill="#680000" height="1636.81" stroke="#b40000" width="1303.076" xlink:href="#b"/></g></g><path d="m299.64 658.183s169.184-63.663 169.184-225.453v-146.544h-338.372v146.544c0 161.79 169.187 225.453 169.187 225.453z" fill="url(#a)" fill-rule="evenodd" transform="matrix(.111 0 0 .111 30.258 5.664)"/><path d="m63.518 78.722s-18.78-7.066-18.78-25.025v-16.267h37.56v16.267c0 17.96-18.78 25.025-18.78 25.025z" fill="none" stroke="#000" stroke-width=".1887"/></svg>